<svg xmlns="http://www.w3.org/2000/svg" id="static" viewBox="0 0 900 1400" width="900" height="1400" font-family="Arial, Helvetica, sans-serif">
<style>
.a-blink{animation:a-blink 1.2s ease-in-out infinite}
.a-blink-slow{animation:a-blink 3s ease-in-out infinite}
.a-glow{animation:a-glow 5s ease-in-out infinite}
.a-pulse{animation:a-pulse 2.2s ease-in-out infinite}
.a-steam{animation:a-steam 2.8s ease-in-out infinite;transform-box:fill-box;transform-origin:center bottom}
.a-sway{animation:a-sway 6s ease-in-out infinite;transform-box:fill-box;transform-origin:center bottom}
.a-flutter{animation:a-flutter 4.5s ease-in-out infinite;transform-box:fill-box;transform-origin:center top}
.a-bounce{animation:a-bounce 2.6s ease-in-out infinite;transform-box:fill-box;transform-origin:center}
.a-ring{animation:a-ring 1.2s ease-in-out infinite;transform-box:fill-box;transform-origin:center}
.a-wave{animation:a-wave 1.2s ease-out infinite}
.a-grow{animation:a-grow .9s ease-in-out infinite;transform-box:fill-box;transform-origin:center}
.a-shimmer{animation:a-shimmer 3.5s ease-in-out infinite}
.d1{animation-delay:.35s}.d2{animation-delay:.7s}
@keyframes a-blink{0%,100%{opacity:1}50%{opacity:.2}}
@keyframes a-glow{0%,100%{opacity:1}50%{opacity:.65}}
@keyframes a-pulse{0%,100%{opacity:1}50%{opacity:.45}}
@keyframes a-steam{0%{opacity:0;transform:translateY(6px)}40%{opacity:.9}100%{opacity:0;transform:translateY(-10px)}}
@keyframes a-sway{0%,100%{transform:rotate(0)}50%{transform:rotate(1.6deg)}}
@keyframes a-flutter{0%,100%{transform:rotate(0)}50%{transform:rotate(-1.4deg)}}
@keyframes a-bounce{0%,70%,100%{transform:scale(1)}80%{transform:scale(1.18)}90%{transform:scale(.95)}}
@keyframes a-ring{0%,100%{transform:rotate(0)}10%{transform:rotate(-2.5deg)}20%{transform:rotate(2.5deg)}30%{transform:rotate(-2.5deg)}40%{transform:rotate(0)}}
@keyframes a-wave{0%{opacity:0}30%{opacity:1}100%{opacity:0}}
@keyframes a-grow{0%,100%{transform:scale(1)}50%{transform:scale(1.12)}}
@keyframes a-shimmer{0%,100%{opacity:.55}50%{opacity:1}}
@media (prefers-reduced-motion: reduce){*{animation:none!important}}
#static:target *{animation:none!important}
</style>
<rect width="900" height="1400" fill="#EEF0FA"/>
<rect y="780" width="900" height="620" fill="#CFD3E8"/>
<rect y="770" width="900" height="14" fill="#E3E6F5"/>
<g id="item-okno" transform="translate(40 320) scale(1)"><rect width="300" height="280" rx="10" fill="#FFFFFF" stroke="#B8BAD0" stroke-width="8"/><rect x="12" y="12" width="276" height="256" fill="#DDEBFF"/><rect x="146" y="12" width="8" height="256" fill="#B8BAD0"/><rect x="12" y="136" width="276" height="8" fill="#B8BAD0"/><circle class="a-glow" cx="231" cy="70" r="25.2" fill="#FFF3B0"/></g>
<g id="item-kalendarz" transform="translate(400 360) scale(1)"><rect width="192" height="220" rx="8" fill="#FFFFFF" stroke="#B8BAD0" stroke-width="4"/><rect width="192" height="44" rx="8" fill="#6C5CE7"/><rect y="30" width="192" height="14" fill="#6C5CE7"/><text x="96" y="31" font-size="22" fill="#FFFFFF" font-weight="bold" text-anchor="middle">WRZESIEŃ</text><rect x="12" y="56" width="22" height="30" rx="3" fill="#EEF0FA"/><rect x="38" y="56" width="22" height="30" rx="3" fill="#EEF0FA"/><rect x="64" y="56" width="22" height="30" rx="3" fill="#EEF0FA"/><rect x="90" y="56" width="22" height="30" rx="3" fill="#EEF0FA"/><rect x="116" y="56" width="22" height="30" rx="3" fill="#EEF0FA"/><rect x="142" y="56" width="22" height="30" rx="3" fill="#EEF0FA"/><rect x="168" y="56" width="22" height="30" rx="3" fill="#EEF0FA"/><rect x="12" y="94" width="22" height="30" rx="3" fill="#EEF0FA"/><rect x="38" y="94" width="22" height="30" rx="3" fill="#EEF0FA"/><rect x="64" y="94" width="22" height="30" rx="3" fill="#EEF0FA"/><rect x="90" y="94" width="22" height="30" rx="3" fill="#EEF0FA"/><rect x="116" y="94" width="22" height="30" rx="3" fill="#EEF0FA"/><rect x="142" y="94" width="22" height="30" rx="3" fill="#EEF0FA"/><rect x="168" y="94" width="22" height="30" rx="3" fill="#EEF0FA"/><rect x="12" y="132" width="22" height="30" rx="3" fill="#EEF0FA"/><rect x="38" y="132" width="22" height="30" rx="3" fill="#EEF0FA"/><rect x="64" y="132" width="22" height="30" rx="3" fill="#EEF0FA"/><rect x="90" y="132" width="22" height="30" rx="3" fill="#EEF0FA"/><rect x="116" y="132" width="22" height="30" rx="3" fill="#EEF0FA"/><rect x="142" y="132" width="22" height="30" rx="3" fill="#EEF0FA"/><rect x="168" y="132" width="22" height="30" rx="3" fill="#EEF0FA"/><rect x="12" y="170" width="22" height="30" rx="3" fill="#EEF0FA"/><rect x="38" y="170" width="22" height="30" rx="3" fill="#EEF0FA"/><rect x="64" y="170" width="22" height="30" rx="3" fill="#EEF0FA"/><rect x="90" y="170" width="22" height="30" rx="3" fill="#EEF0FA"/><rect x="116" y="170" width="22" height="30" rx="3" fill="#EEF0FA"/><rect x="142" y="170" width="22" height="30" rx="3" fill="#EEF0FA"/><rect x="168" y="170" width="22" height="30" rx="3" fill="#EEF0FA"/><circle class="a-pulse" cx="49" cy="147" r="17" fill="none" stroke="#E5484D" stroke-width="5"/><text x="49" y="153" font-size="16" fill="#E5484D" font-weight="bold" text-anchor="middle">15</text><text x="96" y="210" font-size="12" fill="#E5484D" font-weight="bold" text-anchor="middle">PRZELEWY DO 15:00 !!!</text></g>
<g id="item-drzwi" transform="translate(740 380) scale(0.95)"><rect width="170" height="400" rx="6" fill="#A8865F"/><rect x="16" y="16" width="138" height="368" rx="4" fill="none" stroke="#8D6E48" stroke-width="6"/><circle cx="136" cy="200" r="8" fill="#E6C845"/><rect x="35" y="40" width="100" height="26" rx="4" fill="#FFFFFF"/><text x="85" y="58" font-size="13" fill="#2B2440" font-weight="bold" text-anchor="middle">WYJŚCIE</text></g>
<g id="item-biurko" transform="translate(30 980) scale(1)"><rect width="840" height="40" rx="10" fill="#D9C3A5"/><rect y="36" width="840" height="16" fill="#B89C7A"/><rect x="50" y="50" width="40" height="150" fill="#B89C7A"/><rect x="750" y="50" width="40" height="150" fill="#B89C7A"/></g>
<g id="item-krzeslo" transform="translate(420 1050) scale(1)"><rect width="220" height="60" rx="14" fill="#6C5CE7"/><rect y="40" width="220" height="30" rx="10" fill="#4E40B8"/><rect x="95" y="70" width="30" height="50" fill="#8C8FA8"/><rect x="20" y="118" width="180" height="14" rx="7" fill="#8C8FA8"/></g>
<g id="item-roslina" transform="translate(760 1200) scale(1)"><rect x="30" y="110" width="60" height="80" rx="8" fill="#F0883A"/><g class="a-sway"><circle cx="30" cy="70" r="34" fill="#2FB36B"/><circle cx="90" cy="64" r="30" fill="#2FB36B"/><circle cx="60" cy="40" r="36" fill="#2FB36B"/><circle cx="50" cy="90" r="26" fill="#2FB36B"/><circle cx="82" cy="96" r="24" fill="#2FB36B"/></g></g>
<g id="item-drukarka" transform="translate(40 850) scale(1)"><rect y="20" width="230" height="110" rx="14" fill="#FFFFFF" stroke="#B8BAD0" stroke-width="5"/><rect x="30" width="170" height="30" rx="6" fill="#B8BAD0"/><rect x="20" y="55" width="190" height="10" rx="5" fill="#2B2440" opacity="0.15"/><g transform="rotate(-4 115 85)"><rect x="40" y="40" width="150" height="90" rx="4" fill="#FFFFFF" stroke="#B8BAD0" stroke-width="3"/><rect x="55" y="55" width="110" height="5" rx="2.5" fill="#B8BAD0"/><rect x="55" y="68" width="98" height="5" rx="2.5" fill="#B8BAD0"/><rect x="55" y="81" width="86" height="5" rx="2.5" fill="#B8BAD0"/><rect x="55" y="94" width="74" height="5" rx="2.5" fill="#B8BAD0"/><rect x="55" y="107" width="62" height="5" rx="2.5" fill="#B8BAD0"/></g><circle class="a-blink-slow" cx="210" cy="40" r="6" fill="#2FB36B"/></g>
<g id="item-kubek" transform="translate(280 918) scale(1)"><ellipse cx="34" cy="61" rx="30" ry="3" fill="#2B2440" opacity="0.15"/><path d="M62 18 c15 0 15 26 -1 26" fill="none" stroke="#3AA6B9" stroke-width="7" stroke-linecap="round"/><path d="M62 18 c15 0 15 26 -1 26" fill="none" stroke="#2B2440" stroke-width="7" stroke-linecap="round" opacity="0.12"/><path d="M2 8 h64 l-3 44 a8 8 0 0 1 -8 8 h-42 a8 8 0 0 1 -8 -8 z" fill="#3AA6B9"/><path d="M9 14 l2 36" stroke="#FFFFFF" stroke-width="4" stroke-linecap="round" opacity="0.22"/><ellipse cx="34" cy="8" rx="32" ry="6" fill="#3AA6B9"/><ellipse cx="34" cy="8" rx="27" ry="4.2" fill="#6B4A2E"/><ellipse cx="28" cy="7" rx="8" ry="1.6" fill="#FFFFFF" opacity="0.25"/><text x="33" y="34" font-size="8" fill="#FFFFFF" font-weight="bold" text-anchor="middle">Najlepsza</text><text x="33" y="45" font-size="8" fill="#FFFFFF" font-weight="bold" text-anchor="middle">księgowa</text><g class="a-steam"><path d="M24 2 c-5 -6 5 -10 0 -16 c-5 -6 5 -10 0 -16" fill="none" stroke="#8C8FA8" stroke-width="2.4" stroke-linecap="round" opacity="0.45"/></g><g class="a-steam d1"><path d="M34 2 c-5 -6 5 -10 0 -16 c-5 -6 5 -10 0 -16" fill="none" stroke="#8C8FA8" stroke-width="2.4" stroke-linecap="round" opacity="0.45"/></g><g class="a-steam d2"><path d="M44 2 c-5 -6 5 -10 0 -16 c-5 -6 5 -10 0 -16" fill="none" stroke="#8C8FA8" stroke-width="2.4" stroke-linecap="round" opacity="0.45"/></g></g>
<g id="item-monitor" transform="translate(330 698) scale(0.85)"><rect x="160" y="280" width="100" height="50" rx="8" fill="#8C8FA8"/><rect x="100" y="316" width="220" height="16" rx="8" fill="#8C8FA8"/><rect width="420" height="290" rx="16" fill="#2B2440"/><g transform="translate(18 18)"><rect width="384" height="250" rx="6" fill="#F7F8FF"/><clipPath id="scr-monitor"><rect width="384" height="250" rx="6"/></clipPath><g clip-path="url(#scr-monitor)"><rect width="384" height="34" fill="#6C5CE7"/><text x="14" y="23" font-size="16" fill="#FFFFFF" font-weight="bold">Poczta — Skrzynka odbiorcza</text><rect y="34" width="110" height="216" fill="#E3E6F5"/><rect x="12" y="48" width="60" height="10" rx="5" fill="#B8BAD0"/><rect x="12" y="78" width="72" height="10" rx="5" fill="#B8BAD0"/><rect x="12" y="108" width="84" height="10" rx="5" fill="#B8BAD0"/><rect x="12" y="138" width="60" height="10" rx="5" fill="#B8BAD0"/><rect x="12" y="168" width="72" height="10" rx="5" fill="#B8BAD0"/><rect x="12" y="198" width="84" height="10" rx="5" fill="#B8BAD0"/><rect x="110" y="34" width="274" height="216" fill="#FFFFFF"/><rect x="110" y="34" width="274" height="42" fill="#FFF1F1"/><g class="a-pulse"><text x="122" y="52" font-size="13" fill="#E5484D" font-weight="bold">PILNE: weryfikacja konta firmowego</text></g><text x="122" y="68" font-size="11" fill="#8C8FA8">Bank Wektor — Dział Bezpieczeństwa · 8:47</text><rect x="122" y="90" width="250" height="8" rx="4" fill="#B8BAD0"/><rect x="122" y="110" width="227" height="8" rx="4" fill="#B8BAD0"/><rect x="122" y="130" width="204" height="8" rx="4" fill="#B8BAD0"/><rect x="122" y="150" width="250" height="8" rx="4" fill="#B8BAD0"/><rect x="122" y="170" width="181" height="8" rx="4" fill="#B8BAD0"/><rect x="122" y="190" width="227" height="8" rx="4" fill="#B8BAD0"/><rect x="122" y="210" width="204" height="8" rx="4" fill="#B8BAD0"/><rect x="122" y="220" width="150" height="20" rx="5" fill="#6C5CE7"/><text x="197" y="234" font-size="11" fill="#FFFFFF" font-weight="bold" text-anchor="middle">Przejdź do weryfikacji</text></g></g><g transform="translate(368 -22) rotate(6 46 40)"><g class="a-flutter"><rect width="92" height="80" fill="#FFE066"/><rect width="92" height="12" fill="#E6C845" opacity="0.6"/><rect x="32" y="-6" width="28" height="12" rx="3" fill="#2B2440" opacity="0.25"/><text x="46" y="34" font-size="15" fill="#2B2440" font-weight="bold" text-anchor="middle">Unfooly24!</text><text x="46" y="56" font-size="11" fill="#4E40B8" text-anchor="middle">bank: to samo</text></g></g></g>
<g id="item-klawiatura" transform="translate(360 990) scale(0.8)"><rect width="300" height="22" rx="6" fill="#FFFFFF" stroke="#B8BAD0" stroke-width="3"/><rect x="330" width="36" height="24" rx="12" fill="#FFFFFF" stroke="#B8BAD0" stroke-width="3"/></g>
<g id="item-telefon" transform="translate(740 908) scale(0.8)"><rect y="18" width="180" height="70" rx="12" fill="#2B2440"/><rect width="180" height="22" rx="11" fill="#8C8FA8"/><rect x="12" y="30" width="70" height="46" rx="6" fill="#DDEBFF"/><text x="47" y="49" font-size="9" fill="#2B2440" text-anchor="middle">1 nieodebrane</text><rect x="96" y="32" width="18" height="10" rx="2" fill="#8C8FA8"/><rect x="120" y="32" width="18" height="10" rx="2" fill="#8C8FA8"/><rect x="144" y="32" width="18" height="10" rx="2" fill="#8C8FA8"/><rect x="96" y="47" width="18" height="10" rx="2" fill="#8C8FA8"/><rect x="120" y="47" width="18" height="10" rx="2" fill="#8C8FA8"/><rect x="144" y="47" width="18" height="10" rx="2" fill="#8C8FA8"/><rect x="96" y="62" width="18" height="10" rx="2" fill="#8C8FA8"/><rect x="120" y="62" width="18" height="10" rx="2" fill="#8C8FA8"/><rect x="144" y="62" width="18" height="10" rx="2" fill="#8C8FA8"/><circle class="a-blink" cx="166" cy="30" r="7" fill="#E5484D"/></g>
</svg>