<svg xmlns="http://www.w3.org/2000/svg" id="static" viewBox="0 0 1332 1022" width="1332" height="1022">
<style>
.a-blink{animation:a-blink 1.2s ease-in-out infinite}
.a-blink-slow{animation:a-blink 3s ease-in-out infinite}
.a-glow{animation:a-glow 5s ease-in-out infinite}
.a-pulse{animation:a-pulse 2.2s ease-in-out infinite}
.a-steam{animation:a-steam 2.8s ease-in-out infinite;transform-box:fill-box;transform-origin:center bottom}
.a-sway{animation:a-sway 6s ease-in-out infinite;transform-box:fill-box;transform-origin:center bottom}
.a-flutter{animation:a-flutter 4.5s ease-in-out infinite;transform-box:fill-box;transform-origin:center top}
.a-bounce{animation:a-bounce 2.6s ease-in-out infinite;transform-box:fill-box;transform-origin:center}
.a-ring{animation:a-ring 1.2s ease-in-out infinite;transform-box:fill-box;transform-origin:center}
.a-wave{animation:a-wave 1.2s ease-out infinite}
.a-grow{animation:a-grow .9s ease-in-out infinite;transform-box:fill-box;transform-origin:center}
.a-shimmer{animation:a-shimmer 3.5s ease-in-out infinite}
.d1{animation-delay:.35s}.d2{animation-delay:.7s}
@keyframes a-blink{0%,100%{opacity:1}50%{opacity:.2}}
@keyframes a-glow{0%,100%{opacity:1}50%{opacity:.65}}
@keyframes a-pulse{0%,100%{opacity:1}50%{opacity:.45}}
@keyframes a-steam{0%{opacity:0;transform:translateY(6px)}40%{opacity:.9}100%{opacity:0;transform:translateY(-10px)}}
@keyframes a-sway{0%,100%{transform:rotate(0)}50%{transform:rotate(1.6deg)}}
@keyframes a-flutter{0%,100%{transform:rotate(0)}50%{transform:rotate(-1.4deg)}}
@keyframes a-bounce{0%,70%,100%{transform:scale(1)}80%{transform:scale(1.18)}90%{transform:scale(.95)}}
@keyframes a-ring{0%,100%{transform:rotate(0)}10%{transform:rotate(-2.5deg)}20%{transform:rotate(2.5deg)}30%{transform:rotate(-2.5deg)}40%{transform:rotate(0)}}
@keyframes a-wave{0%{opacity:0}30%{opacity:1}100%{opacity:0}}
@keyframes a-grow{0%,100%{transform:scale(1)}50%{transform:scale(1.12)}}
@keyframes a-shimmer{0%,100%{opacity:.55}50%{opacity:1}}
@media (prefers-reduced-motion: reduce){*{animation:none!important}}
#static:target *{animation:none!important}
</style>
<g id="item-ramka-ekranu" transform="translate(30 30) scale(1)"><rect x="558" y="850" width="140" height="62" fill="#8C8FA8"/><rect x="438" y="908" width="380" height="26" rx="13" fill="#8C8FA8"/><rect x="12" y="16" width="1256" height="856" rx="26" fill="#2B2440" opacity="0.2"/><rect width="1256" height="856" rx="26" fill="#2B2440"/><rect x="28" y="28" width="1200" height="800" rx="6" fill="#4E40B8"/></g>
<g id="item-outlook" transform="translate(118 108) scale(1.6)"><rect x="20" y="16" width="80" height="72" rx="12" fill="#6C5CE7"/><rect x="34" y="34" width="52" height="36" rx="4" fill="#FFFFFF"/><path d="M34 36 l26 20 l26 -20" fill="none" stroke="#6C5CE7" stroke-width="4"/><rect x="6" y="98" width="108" height="24" rx="6" fill="#2B2440" opacity="0.35"/><path d="M39.39 115L37.49 115L37.49 104.57L41.38 104.57Q42.44 104.57 43.26 104.95Q44.08 105.34 44.54 106.08Q45.01 106.81 45.01 107.86L45.01 107.86Q45.01 108.91 44.54 109.64Q44.07 110.38 43.25 110.77Q42.43 111.15 41.38 111.15L41.38 111.15L39.39 111.15L39.39 115ZM39.39 106.25L39.39 109.47L41.41 109.47Q42.16 109.47 42.63 109.03Q43.10 108.59 43.10 107.86L43.10 107.86Q43.10 107.13 42.63 106.69Q42.16 106.25 41.41 106.25L41.41 106.25L39.39 106.25ZM49.85 115.17L49.85 115.17Q48.73 115.17 47.81 114.65Q46.90 114.13 46.36 113.24Q45.82 112.34 45.82 111.19L45.82 111.19Q45.82 110.04 46.36 109.15Q46.90 108.25 47.81 107.73Q48.72 107.22 49.85 107.22L49.85 107.22Q50.96 107.22 51.87 107.73Q52.78 108.25 53.32 109.15Q53.87 110.04 53.87 111.19L53.87 111.19Q53.87 112.34 53.32 113.24Q52.78 114.15 51.87 114.66Q50.96 115.17 49.85 115.17ZM49.85 113.49L49.85 113.49Q50.45 113.49 50.93 113.19Q51.40 112.90 51.68 112.38Q51.95 111.86 51.95 111.19L51.95 111.19Q51.95 110.53 51.68 110.02Q51.40 109.50 50.93 109.20Q50.45 108.90 49.85 108.90L49.85 108.90Q49.22 108.90 48.74 109.20Q48.27 109.50 47.99 110.02Q47.72 110.53 47.72 111.19L47.72 111.19Q47.72 111.86 47.99 112.38Q48.27 112.90 48.74 113.19Q49.22 113.49 49.85 113.49ZM58.92 115.17L58.92 115.17Q57.77 115.17 56.88 114.64Q55.98 114.12 55.46 113.22Q54.95 112.31 54.95 111.18L54.95 111.18Q54.95 110.04 55.46 109.16Q55.98 108.27 56.88 107.74Q57.77 107.22 58.92 107.22L58.92 107.22Q59.73 107.22 60.43 107.50Q61.13 107.79 61.64 108.29Q62.14 108.80 62.38 109.47L62.38 109.47L60.77 110.17Q60.56 109.60 60.06 109.25Q59.57 108.90 58.92 108.90L58.92 108.90Q58.32 108.90 57.85 109.20Q57.38 109.50 57.12 110.01Q56.85 110.52 56.85 111.19L56.85 111.19Q56.85 111.86 57.12 112.38Q57.38 112.90 57.85 113.19Q58.32 113.49 58.92 113.49L58.92 113.49Q59.58 113.49 60.06 113.14Q60.55 112.80 60.77 112.20L60.77 112.20L62.38 112.93Q62.16 113.59 61.65 114.09Q61.15 114.59 60.45 114.88Q59.75 115.17 58.92 115.17ZM69.46 115L63.11 115L63.11 113.52L66.99 109.02L63.30 109.02L63.30 107.38L69.44 107.38L69.44 108.88L65.64 113.38L69.46 113.38L69.46 115ZM73.97 115.08L73.97 115.08Q72.68 115.08 71.98 114.38Q71.27 113.67 71.27 112.38L71.27 112.38L71.27 109.02L69.95 109.02L69.95 107.38L70.09 107.38Q70.65 107.38 70.96 107.09Q71.27 106.80 71.27 106.24L71.27 106.24L71.27 105.65L73.10 105.65L73.10 107.38L74.85 107.38L74.85 109.02L73.10 109.02L73.10 112.28Q73.10 112.86 73.41 113.17Q73.72 113.47 74.39 113.47L74.39 113.47Q74.60 113.47 74.88 113.43L74.88 113.43L74.88 115Q74.69 115.03 74.43 115.06Q74.18 115.08 73.97 115.08ZM78.56 115.17L78.56 115.17Q77.37 115.17 76.66 114.58Q75.95 113.99 75.95 112.98L75.95 112.98Q75.95 112.03 76.59 111.40Q77.23 110.77 78.58 110.55L78.58 110.55L80.85 110.18L80.85 109.93Q80.85 109.44 80.46 109.11Q80.08 108.78 79.45 108.78L79.45 108.78Q78.84 108.78 78.40 109.10Q77.95 109.41 77.74 109.93L77.74 109.93L76.24 109.20Q76.58 108.31 77.47 107.76Q78.37 107.22 79.52 107.22L79.52 107.22Q80.45 107.22 81.16 107.57Q81.87 107.92 82.27 108.53Q82.68 109.13 82.68 109.93L82.68 109.93L82.68 115L80.94 115L80.94 114.20Q80.05 115.17 78.56 115.17ZM77.85 112.91L77.85 112.91Q77.85 113.31 78.14 113.54Q78.44 113.77 78.90 113.77L78.90 113.77Q79.77 113.77 80.31 113.23Q80.85 112.69 80.85 111.89L80.85 111.89L80.85 111.58L78.93 111.91Q77.85 112.10 77.85 112.91Z" fill="#FFFFFF"/><g class="a-bounce"><circle cx="98" cy="20" r="14" fill="#E5484D"/><path d="M99.50 25L97.60 25L97.60 16.19L95.59 16.19L95.59 14.57L99.50 14.57L99.50 25Z" fill="#FFFFFF"/></g></g>
<g id="item-przegladarka" transform="translate(118 328) scale(1.6)"><circle cx="60" cy="52" r="38" fill="#3AA6B9"/><ellipse cx="60" cy="52" rx="16" ry="38" fill="none" stroke="#FFFFFF" stroke-width="4"/><line x1="22" y1="52" x2="98" y2="52" stroke="#FFFFFF" stroke-width="4"/><rect x="6" y="98" width="108" height="24" rx="6" fill="#2B2440" opacity="0.35"/><path d="M35.72 115L33.82 115L33.82 104.57L35.72 104.57L35.72 115ZM39.41 115L37.57 115L37.57 107.38L39.29 107.38L39.29 108.32Q39.60 107.78 40.16 107.50Q40.72 107.22 41.45 107.22L41.45 107.22Q42.29 107.22 42.93 107.59Q43.58 107.96 43.95 108.60Q44.32 109.25 44.32 110.10L44.32 110.10L44.32 115L42.49 115L42.49 110.53Q42.49 109.78 42.06 109.34Q41.63 108.90 40.95 108.90L40.95 108.90Q40.26 108.90 39.83 109.34Q39.41 109.79 39.41 110.53L39.41 110.53L39.41 115ZM49.35 115.08L49.35 115.08Q48.06 115.08 47.35 114.38Q46.64 113.67 46.64 112.38L46.64 112.38L46.64 109.02L45.33 109.02L45.33 107.38L45.47 107.38Q46.03 107.38 46.34 107.09Q46.64 106.80 46.64 106.24L46.64 106.24L46.64 105.65L48.48 105.65L48.48 107.38L50.23 107.38L50.23 109.02L48.48 109.02L48.48 112.28Q48.48 112.86 48.79 113.17Q49.09 113.47 49.77 113.47L49.77 113.47Q49.98 113.47 50.26 113.43L50.26 113.43L50.26 115Q50.06 115.03 49.81 115.06Q49.56 115.08 49.35 115.08ZM55.20 115.17L55.20 115.17Q54.02 115.17 53.14 114.64Q52.26 114.10 51.77 113.20Q51.28 112.30 51.28 111.18L51.28 111.18Q51.28 110.04 51.78 109.15Q52.27 108.25 53.13 107.73Q53.98 107.22 55.06 107.22L55.06 107.22Q56.23 107.22 57.06 107.73Q57.89 108.24 58.33 109.08Q58.77 109.92 58.77 110.94L58.77 110.94Q58.77 111.15 58.75 111.35Q58.73 111.56 58.67 111.71L58.67 111.71L53.18 111.71Q53.27 112.56 53.83 113.06Q54.39 113.56 55.21 113.56L55.21 113.56Q55.84 113.56 56.28 113.29Q56.72 113.03 56.98 112.58L56.98 112.58L58.46 113.31Q58.11 114.12 57.24 114.64Q56.36 115.17 55.20 115.17ZM55.06 108.73L55.06 108.73Q54.37 108.73 53.88 109.14Q53.38 109.55 53.22 110.31L53.22 110.31L56.81 110.31Q56.75 109.61 56.27 109.17Q55.79 108.73 55.06 108.73ZM61.99 115L60.15 115L60.15 107.38L61.88 107.38L61.88 108.45Q62.17 107.82 62.70 107.56Q63.23 107.30 63.93 107.30L63.93 107.30L64.38 107.30L64.38 108.92L63.72 108.92Q62.95 108.92 62.47 109.41Q61.99 109.89 61.99 110.76L61.99 110.76L61.99 115ZM67.22 115L65.39 115L65.39 107.38L67.11 107.38L67.11 108.32Q67.42 107.78 67.98 107.50Q68.54 107.22 69.27 107.22L69.27 107.22Q70.11 107.22 70.75 107.59Q71.40 107.96 71.77 108.60Q72.14 109.25 72.14 110.10L72.14 110.10L72.14 115L70.30 115L70.30 110.53Q70.30 109.78 69.88 109.34Q69.45 108.90 68.76 108.90L68.76 108.90Q68.08 108.90 67.65 109.34Q67.22 109.79 67.22 110.53L67.22 110.53L67.22 115ZM77.30 115.17L77.30 115.17Q76.13 115.17 75.25 114.64Q74.36 114.10 73.87 113.20Q73.38 112.30 73.38 111.18L73.38 111.18Q73.38 110.04 73.88 109.15Q74.38 108.25 75.23 107.73Q76.09 107.22 77.16 107.22L77.16 107.22Q78.34 107.22 79.17 107.73Q79.99 108.24 80.43 109.08Q80.87 109.92 80.87 110.94L80.87 110.94Q80.87 111.15 80.85 111.35Q80.83 111.56 80.78 111.71L80.78 111.71L75.29 111.71Q75.37 112.56 75.93 113.06Q76.49 113.56 77.32 113.56L77.32 113.56Q77.95 113.56 78.39 113.29Q78.83 113.03 79.08 112.58L79.08 112.58L80.57 113.31Q80.22 114.12 79.34 114.64Q78.47 115.17 77.30 115.17ZM77.16 108.73L77.16 108.73Q76.48 108.73 75.98 109.14Q75.48 109.55 75.33 110.31L75.33 110.31L78.91 110.31Q78.86 109.61 78.38 109.17Q77.89 108.73 77.16 108.73ZM85.73 115.08L85.73 115.08Q84.44 115.08 83.74 114.38Q83.03 113.67 83.03 112.38L83.03 112.38L83.03 109.02L81.71 109.02L81.71 107.38L81.85 107.38Q82.41 107.38 82.72 107.09Q83.03 106.80 83.03 106.24L83.03 106.24L83.03 105.65L84.86 105.65L84.86 107.38L86.61 107.38L86.61 109.02L84.86 109.02L84.86 112.28Q84.86 112.86 85.17 113.17Q85.48 113.47 86.15 113.47L86.15 113.47Q86.36 113.47 86.64 113.43L86.64 113.43L86.64 115Q86.45 115.03 86.19 115.06Q85.94 115.08 85.73 115.08Z" fill="#FFFFFF"/></g>
<g id="item-faktury" transform="translate(118 548) scale(1.6)"><path d="M22 30 h32 l10 10 h44 v50 a6 6 0 0 1 -6 6 h-74 a6 6 0 0 1 -6 -6 z" fill="#E6C845"/><rect x="22" y="46" width="86" height="50" rx="6" fill="#FFE066"/><rect x="6" y="98" width="108" height="24" rx="6" fill="#2B2440" opacity="0.35"/><path d="M37.10 115L35.20 115L35.20 104.57L42.16 104.57L42.16 106.25L37.10 106.25L37.10 109.13L41.53 109.13L41.53 110.81L37.10 110.81L37.10 115ZM45.25 115.17L45.25 115.17Q44.06 115.17 43.35 114.58Q42.63 113.99 42.63 112.98L42.63 112.98Q42.63 112.03 43.28 111.40Q43.92 110.77 45.27 110.55L45.27 110.55L47.53 110.18L47.53 109.93Q47.53 109.44 47.15 109.11Q46.76 108.78 46.13 108.78L46.13 108.78Q45.53 108.78 45.08 109.10Q44.64 109.41 44.43 109.93L44.43 109.93L42.93 109.20Q43.26 108.31 44.16 107.76Q45.06 107.22 46.20 107.22L46.20 107.22Q47.14 107.22 47.85 107.57Q48.56 107.92 48.96 108.53Q49.37 109.13 49.37 109.93L49.37 109.93L49.37 115L47.63 115L47.63 114.20Q46.73 115.17 45.25 115.17ZM44.54 112.91L44.54 112.91Q44.54 113.31 44.83 113.54Q45.13 113.77 45.59 113.77L45.59 113.77Q46.46 113.77 46.99 113.23Q47.53 112.69 47.53 111.89L47.53 111.89L47.53 111.58L45.62 111.91Q44.54 112.10 44.54 112.91ZM52.90 115L51.06 115L51.06 104.40L52.90 104.40L52.90 110.41L55.78 107.38L58.06 107.38L55.25 110.45L58.12 115L56.02 115L53.89 111.61L52.90 112.69L52.90 115ZM62.61 115.08L62.61 115.08Q61.32 115.08 60.62 114.38Q59.91 113.67 59.91 112.38L59.91 112.38L59.91 109.02L58.59 109.02L58.59 107.38L58.73 107.38Q59.29 107.38 59.60 107.09Q59.91 106.80 59.91 106.24L59.91 106.24L59.91 105.65L61.74 105.65L61.74 107.38L63.49 107.38L63.49 109.02L61.74 109.02L61.74 112.28Q61.74 112.86 62.05 113.17Q62.36 113.47 63.03 113.47L63.03 113.47Q63.24 113.47 63.52 113.43L63.52 113.43L63.52 115Q63.33 115.03 63.07 115.06Q62.82 115.08 62.61 115.08ZM67.64 115.17L67.64 115.17Q66.29 115.17 65.53 114.31Q64.77 113.45 64.77 112.05L64.77 112.05L64.77 107.38L66.60 107.38L66.60 111.89Q66.60 112.62 67.03 113.05Q67.46 113.49 68.14 113.49L68.14 113.49Q68.81 113.49 69.25 113.05Q69.68 112.61 69.68 111.85L69.68 111.85L69.68 107.38L71.52 107.38L71.52 115L69.78 115L69.78 114.08Q69.47 114.62 68.91 114.89Q68.35 115.17 67.64 115.17ZM75.06 115L73.22 115L73.22 107.38L74.94 107.38L74.94 108.45Q75.24 107.82 75.77 107.56Q76.30 107.30 77.00 107.30L77.00 107.30L77.45 107.30L77.45 108.92L76.79 108.92Q76.02 108.92 75.54 109.41Q75.06 109.89 75.06 110.76L75.06 110.76L75.06 115ZM79.38 118.08L79.38 118.08Q79.07 118.08 78.78 118.03Q78.49 117.98 78.25 117.86L78.25 117.86L78.25 116.33Q78.43 116.37 78.68 116.41Q78.93 116.46 79.17 116.46L79.17 116.46Q79.80 116.46 80.09 116.17Q80.38 115.88 80.60 115.41L80.60 115.41L80.77 115L77.76 107.38L79.73 107.38L81.71 112.63L83.67 107.38L85.65 107.38L82.34 115.77Q81.89 116.88 81.17 117.48Q80.45 118.08 79.38 118.08Z" fill="#FFFFFF"/></g>
<g id="item-arkusz" transform="translate(358 108) scale(1.6)"><rect x="26" y="14" width="68" height="78" rx="6" fill="#2FB36B"/><rect x="36" y="28" width="48" height="10" fill="#FFFFFF" opacity="0.9"/><rect x="36" y="44" width="48" height="10" fill="#FFFFFF" opacity="0.9"/><rect x="36" y="60" width="48" height="10" fill="#FFFFFF" opacity="0.9"/><rect x="36" y="76" width="48" height="10" fill="#FFFFFF" opacity="0.9"/><rect x="6" y="98" width="108" height="24" rx="6" fill="#2B2440" opacity="0.35"/><path d="M31.78 115L29.87 115L29.87 104.57L33.76 104.57Q34.83 104.57 35.65 104.95Q36.47 105.34 36.93 106.08Q37.39 106.81 37.39 107.86L37.39 107.86Q37.39 108.91 36.92 109.64Q36.45 110.38 35.63 110.77Q34.81 111.15 33.76 111.15L33.76 111.15L31.78 111.15L31.78 115ZM31.78 106.25L31.78 109.47L33.79 109.47Q34.55 109.47 35.02 109.03Q35.49 108.59 35.49 107.86L35.49 107.86Q35.49 107.13 35.02 106.69Q34.55 106.25 33.79 106.25L33.79 106.25L31.78 106.25ZM40.62 115L38.79 115L38.79 107.38L40.51 107.38L40.51 108.45Q40.81 107.82 41.34 107.56Q41.87 107.30 42.57 107.30L42.57 107.30L43.02 107.30L43.02 108.92L42.36 108.92Q41.59 108.92 41.11 109.41Q40.62 109.89 40.62 110.76L40.62 110.76L40.62 115ZM49.72 115L43.37 115L43.37 113.52L47.25 109.02L43.56 109.02L43.56 107.38L49.70 107.38L49.70 108.88L45.90 113.38L49.72 113.38L49.72 115ZM54.37 115.17L54.37 115.17Q53.20 115.17 52.31 114.64Q51.43 114.10 50.94 113.20Q50.45 112.30 50.45 111.18L50.45 111.18Q50.45 110.04 50.95 109.15Q51.45 108.25 52.30 107.73Q53.15 107.22 54.23 107.22L54.23 107.22Q55.41 107.22 56.23 107.73Q57.06 108.24 57.50 109.08Q57.94 109.92 57.94 110.94L57.94 110.94Q57.94 111.15 57.92 111.35Q57.90 111.56 57.84 111.71L57.84 111.71L52.36 111.71Q52.44 112.56 53.00 113.06Q53.56 113.56 54.39 113.56L54.39 113.56Q55.02 113.56 55.46 113.29Q55.90 113.03 56.15 112.58L56.15 112.58L57.63 113.31Q57.28 114.12 56.41 114.64Q55.53 115.17 54.37 115.17ZM54.23 108.73L54.23 108.73Q53.55 108.73 53.05 109.14Q52.55 109.55 52.40 110.31L52.40 110.31L55.98 110.31Q55.93 109.61 55.44 109.17Q54.96 108.73 54.23 108.73ZM61.16 115L59.33 115L59.33 104.40L61.16 104.40L61.16 115ZM66.47 115.17L66.47 115.17Q65.29 115.17 64.41 114.64Q63.53 114.10 63.04 113.20Q62.55 112.30 62.55 111.18L62.55 111.18Q62.55 110.04 63.04 109.15Q63.54 108.25 64.40 107.73Q65.25 107.22 66.33 107.22L66.33 107.22Q67.50 107.22 68.33 107.73Q69.16 108.24 69.60 109.08Q70.04 109.92 70.04 110.94L70.04 110.94Q70.04 111.15 70.02 111.35Q70.00 111.56 69.94 111.71L69.94 111.71L64.45 111.71Q64.54 112.56 65.10 113.06Q65.66 113.56 66.48 113.56L66.48 113.56Q67.11 113.56 67.55 113.29Q67.99 113.03 68.25 112.58L68.25 112.58L69.73 113.31Q69.38 114.12 68.50 114.64Q67.63 115.17 66.47 115.17ZM66.33 108.73L66.33 108.73Q65.64 108.73 65.14 109.14Q64.65 109.55 64.49 110.31L64.49 110.31L68.08 110.31Q68.02 109.61 67.54 109.17Q67.06 108.73 66.33 108.73ZM74.97 115L73.34 115L70.72 107.38L72.66 107.38L74.24 112.19L75.95 107.38L77.57 107.38L79.25 112.19L80.85 107.38L82.78 107.38L80.16 115L78.52 115L76.76 109.86L74.97 115ZM84.71 118.08L84.71 118.08Q84.40 118.08 84.11 118.03Q83.81 117.98 83.58 117.86L83.58 117.86L83.58 116.33Q83.76 116.37 84.01 116.41Q84.26 116.46 84.50 116.46L84.50 116.46Q85.13 116.46 85.42 116.17Q85.70 115.88 85.93 115.41L85.93 115.41L86.10 115L83.09 107.38L85.06 107.38L87.03 112.63L88.99 107.38L90.98 107.38L87.66 115.77Q87.22 116.88 86.50 117.48Q85.77 118.08 84.71 118.08Z" fill="#FFFFFF"/></g>
<g id="item-gra" transform="translate(358 328) scale(1.6)"><defs><linearGradient id="sky-gra" x1="0" y1="0" x2="0" y2="1"><stop offset="0" stop-color="#3B2A7A"/><stop offset="0.55" stop-color="#E0527E"/><stop offset="1" stop-color="#F7A24B"/></linearGradient><clipPath id="ic-gra"><rect x="18" y="12" width="84" height="80" rx="16"/></clipPath></defs><g clip-path="url(#ic-gra)"><rect x="18" y="12" width="84" height="80" fill="url(#sky-gra)"/><circle cx="60" cy="62" r="20" fill="#FFD36E"/><rect x="36" y="60" width="48" height="2" fill="#E0527E"/><rect x="36" y="66" width="48" height="3" fill="#E0527E"/><rect x="36" y="72" width="48" height="4" fill="#E0527E"/><rect x="18" y="76" width="84" height="16" fill="#2B2440"/><rect x="30" y="83" width="12" height="2" fill="#FFD36E"/><rect x="54" y="83" width="12" height="2" fill="#FFD36E"/><rect x="78" y="83" width="12" height="2" fill="#FFD36E"/><path d="M30 76 q2 -22 -2 -40" stroke="#2B2440" stroke-width="3" fill="none"/><path d="M28 36 q-12 -2 -16 8 M28 36 q-10 -8 -18 -4 M28 36 q4 -12 14 -12 M28 36 q12 -4 16 6 M28 36 q2 -10 -2 -16" stroke="#2B2440" stroke-width="4" fill="none" stroke-linecap="round"/><path d="M58 76 l4 -7 h18 l6 5 h8 v4 z" fill="#2B2440"/></g><rect x="74" y="14" width="26" height="22" rx="5" fill="#FFFFFF"/><path d="M87.02 31.20L87.02 31.20Q85.72 31.20 84.73 30.66Q83.74 30.12 83.17 29.16Q82.61 28.21 82.61 27.00L82.61 27.00Q82.61 26.39 82.74 25.78Q82.87 25.17 83.22 24.47Q83.57 23.77 84.23 22.92L84.23 22.92L87.77 18.34L90.52 18.34L86.91 22.99Q87.14 22.94 87.41 22.94L87.41 22.94Q88.56 22.94 89.47 23.47Q90.37 24.00 90.88 24.91Q91.40 25.81 91.40 26.95L91.40 26.95Q91.40 28.18 90.84 29.14Q90.28 30.10 89.29 30.65Q88.29 31.20 87.02 31.20ZM87.02 29.11L87.02 29.11Q87.88 29.11 88.49 28.52Q89.09 27.92 89.09 26.99L89.09 26.99Q89.09 26.04 88.49 25.45Q87.88 24.86 87.02 24.86L87.02 24.86Q86.13 24.86 85.53 25.45Q84.93 26.04 84.93 26.99L84.93 26.99Q84.93 27.92 85.53 28.52Q86.13 29.11 87.02 29.11Z" fill="#E0527E"/><rect x="6" y="98" width="108" height="24" rx="6" fill="#2B2440" opacity="0.35"/><path d="M19.83 115.17L19.83 115.17Q18.71 115.17 17.75 114.77Q16.80 114.37 16.08 113.64Q15.37 112.91 14.98 111.93Q14.58 110.94 14.58 109.78L14.58 109.78Q14.58 108.62 14.97 107.64Q15.35 106.66 16.06 105.93Q16.77 105.20 17.72 104.80Q18.67 104.40 19.79 104.40L19.79 104.40Q20.90 104.40 21.79 104.78Q22.69 105.16 23.31 105.78Q23.92 106.40 24.19 107.15L24.19 107.15L22.49 107.96Q22.19 107.15 21.49 106.64Q20.79 106.14 19.79 106.14L19.79 106.14Q18.81 106.14 18.06 106.59Q17.31 107.05 16.90 107.87Q16.49 108.70 16.49 109.78L16.49 109.78Q16.49 110.87 16.91 111.70Q17.34 112.52 18.10 112.98Q18.85 113.43 19.83 113.43L19.83 113.43Q20.63 113.43 21.30 113.12Q21.96 112.80 22.38 112.22Q22.79 111.64 22.79 110.84L22.79 110.84L22.79 110.80L19.79 110.80L19.79 109.19L24.69 109.19L24.69 110.24Q24.69 111.46 24.29 112.38Q23.88 113.29 23.19 113.92Q22.49 114.54 21.63 114.85Q20.76 115.17 19.83 115.17ZM29.83 115L27.91 115L27.91 106.25L25.21 106.25L25.21 104.57L32.49 104.57L32.49 106.25L29.83 106.25L29.83 115ZM34.16 115L32.10 115L35.70 104.57L38.16 104.57L41.76 115L39.69 115L38.94 112.76L34.91 112.76L34.16 115ZM36.93 106.68L35.46 111.08L38.40 111.08L36.93 106.68ZM46.14 115.17L46.14 115.17Q45.08 115.17 44.26 114.72Q43.44 114.27 42.98 113.49Q42.51 112.70 42.51 111.71L42.51 111.71Q42.51 111.21 42.62 110.70Q42.72 110.20 43.01 109.62Q43.30 109.05 43.84 108.35L43.84 108.35L46.76 104.57L49.02 104.57L46.06 108.41Q46.24 108.36 46.46 108.36L46.46 108.36Q47.41 108.36 48.16 108.80Q48.90 109.23 49.33 109.98Q49.75 110.73 49.75 111.67L49.75 111.67Q49.75 112.68 49.29 113.47Q48.83 114.26 48.01 114.71Q47.19 115.17 46.14 115.17ZM46.14 113.45L46.14 113.45Q46.85 113.45 47.35 112.96Q47.85 112.47 47.85 111.70L47.85 111.70Q47.85 110.91 47.35 110.43Q46.85 109.95 46.14 109.95L46.14 109.95Q45.41 109.95 44.91 110.43Q44.42 110.91 44.42 111.70L44.42 111.70Q44.42 112.47 44.91 112.96Q45.41 113.45 46.14 113.45ZM58.39 116.61L51.57 116.61L51.57 115L58.39 115L58.39 116.61ZM62.53 115L60.63 115L60.63 104.57L64.52 104.57Q65.59 104.57 66.41 104.95Q67.22 105.34 67.69 106.08Q68.15 106.81 68.15 107.86L68.15 107.86Q68.15 108.91 67.68 109.64Q67.21 110.38 66.39 110.77Q65.57 111.15 64.52 111.15L64.52 111.15L62.53 111.15L62.53 115ZM62.53 106.25L62.53 109.47L64.55 109.47Q65.31 109.47 65.78 109.03Q66.24 108.59 66.24 107.86L66.24 107.86Q66.24 107.13 65.78 106.69Q65.31 106.25 64.55 106.25L64.55 106.25L62.53 106.25ZM76.07 115L69.70 115L69.70 104.57L71.61 104.57L71.61 113.32L76.07 113.32L76.07 115ZM79.87 115L78.02 115L78.02 113.04L79.87 113.04L79.87 115ZM86.05 115.17L86.05 115.17Q84.88 115.17 84.00 114.64Q83.11 114.10 82.62 113.20Q82.13 112.30 82.13 111.18L82.13 111.18Q82.13 110.04 82.63 109.15Q83.13 108.25 83.98 107.73Q84.84 107.22 85.91 107.22L85.91 107.22Q87.09 107.22 87.92 107.73Q88.74 108.24 89.18 109.08Q89.62 109.92 89.62 110.94L89.62 110.94Q89.62 111.15 89.60 111.35Q89.58 111.56 89.53 111.71L89.53 111.71L84.04 111.71Q84.12 112.56 84.68 113.06Q85.24 113.56 86.07 113.56L86.07 113.56Q86.70 113.56 87.14 113.29Q87.58 113.03 87.83 112.58L87.83 112.58L89.32 113.31Q88.97 114.12 88.09 114.64Q87.22 115.17 86.05 115.17ZM85.91 108.73L85.91 108.73Q85.23 108.73 84.73 109.14Q84.23 109.55 84.08 110.31L84.08 110.31L87.66 110.31Q87.61 109.61 87.13 109.17Q86.64 108.73 85.91 108.73ZM92.34 115L90.18 115L92.84 111.18L90.17 107.38L92.33 107.38L93.92 109.75L95.53 107.38L97.67 107.38L95.01 111.18L97.66 115L95.52 115L93.92 112.62L92.34 115ZM102.01 115.17L102.01 115.17Q100.84 115.17 99.96 114.64Q99.07 114.10 98.58 113.20Q98.09 112.30 98.09 111.18L98.09 111.18Q98.09 110.04 98.59 109.15Q99.09 108.25 99.94 107.73Q100.80 107.22 101.87 107.22L101.87 107.22Q103.05 107.22 103.88 107.73Q104.70 108.24 105.14 109.08Q105.58 109.92 105.58 110.94L105.58 110.94Q105.58 111.15 105.56 111.35Q105.54 111.56 105.49 111.71L105.49 111.71L100.00 111.71Q100.08 112.56 100.64 113.06Q101.20 113.56 102.03 113.56L102.03 113.56Q102.66 113.56 103.10 113.29Q103.54 113.03 103.79 112.58L103.79 112.58L105.28 113.31Q104.93 114.12 104.05 114.64Q103.18 115.17 102.01 115.17ZM101.87 108.73L101.87 108.73Q101.19 108.73 100.69 109.14Q100.19 109.55 100.04 110.31L100.04 110.31L103.62 110.31Q103.57 109.61 103.09 109.17Q102.60 108.73 101.87 108.73Z" fill="#FFFFFF"/></g>
<g id="item-kosz" transform="translate(1038 108) scale(1.6)"><rect x="34" y="30" width="52" height="60" rx="6" fill="#8C8FA8"/><rect x="26" y="20" width="68" height="12" rx="4" fill="#8C8FA8"/><rect x="48" y="12" width="24" height="10" rx="3" fill="#8C8FA8"/><rect x="46" y="42" width="6" height="38" rx="3" fill="#FFFFFF"/><rect x="68" y="42" width="6" height="38" rx="3" fill="#FFFFFF"/><rect x="6" y="98" width="108" height="24" rx="6" fill="#2B2440" opacity="0.35"/><path d="M46.77 115L44.87 115L44.87 104.57L46.77 104.57L46.77 109.22L50.69 104.57L53.08 104.57L49.47 108.87L53.21 115L50.97 115L48.17 110.41L46.77 112.07L46.77 115ZM57.66 115.17L57.66 115.17Q56.54 115.17 55.63 114.65Q54.71 114.13 54.17 113.24Q53.63 112.34 53.63 111.19L53.63 111.19Q53.63 110.04 54.17 109.15Q54.71 108.25 55.62 107.73Q56.53 107.22 57.66 107.22L57.66 107.22Q58.77 107.22 59.68 107.73Q60.59 108.25 61.13 109.15Q61.68 110.04 61.68 111.19L61.68 111.19Q61.68 112.34 61.13 113.24Q60.59 114.15 59.68 114.66Q58.77 115.17 57.66 115.17ZM57.66 113.49L57.66 113.49Q58.26 113.49 58.74 113.19Q59.22 112.90 59.49 112.38Q59.76 111.86 59.76 111.19L59.76 111.19Q59.76 110.53 59.49 110.02Q59.22 109.50 58.74 109.20Q58.26 108.90 57.66 108.90L57.66 108.90Q57.03 108.90 56.56 109.20Q56.08 109.50 55.81 110.02Q55.53 110.53 55.53 111.19L55.53 111.19Q55.53 111.86 55.81 112.38Q56.08 112.90 56.56 113.19Q57.03 113.49 57.66 113.49ZM65.96 115.17L65.96 115.17Q64.75 115.17 63.84 114.59Q62.94 114.01 62.60 113.01L62.60 113.01L63.98 112.35Q64.27 113.00 64.80 113.36Q65.32 113.73 65.96 113.73L65.96 113.73Q66.45 113.73 66.76 113.51Q67.06 113.29 67.06 112.91L67.06 112.91Q67.06 112.58 66.80 112.40Q66.54 112.21 66.17 112.12L66.17 112.12L64.93 111.77Q63.96 111.50 63.47 110.92Q62.97 110.34 62.97 109.55L62.97 109.55Q62.97 108.85 63.33 108.33Q63.70 107.80 64.33 107.51Q64.96 107.22 65.78 107.22L65.78 107.22Q66.86 107.22 67.69 107.74Q68.51 108.27 68.86 109.19L68.86 109.19L67.46 109.85Q67.27 109.33 66.80 109.02Q66.34 108.71 65.77 108.71L65.77 108.71Q65.31 108.71 65.04 108.92Q64.77 109.13 64.77 109.47L64.77 109.47Q64.77 109.79 65.02 109.97Q65.26 110.16 65.67 110.27L65.67 110.27L66.89 110.63Q67.83 110.91 68.34 111.48Q68.85 112.05 68.85 112.84L68.85 112.84Q68.85 113.54 68.48 114.06Q68.12 114.58 67.47 114.87Q66.82 115.17 65.96 115.17ZM75.96 115L69.60 115L69.60 113.52L73.48 109.02L69.80 109.02L69.80 107.38L75.93 107.38L75.93 108.88L72.14 113.38L75.96 113.38L75.96 115Z" fill="#FFFFFF"/></g>
<g id="item-pasek" transform="translate(58 802) scale(1)"><rect width="1200" height="56" fill="#2B2440"/><rect x="14" y="14" width="28" height="28" rx="6" fill="#6C5CE7"/><rect x="21" y="21" width="6" height="6" fill="#FFFFFF"/><rect x="29" y="21" width="6" height="6" fill="#FFFFFF"/><rect x="21" y="29" width="6" height="6" fill="#FFFFFF"/><rect x="29" y="29" width="6" height="6" fill="#FFFFFF"/><rect x="60" y="12" width="260" height="32" rx="16" fill="#FFFFFF" opacity="0.15"/><path d="M84.34 33L83.15 33L80.15 22.57L81.29 22.57L83.77 31.49L86.30 22.57L87.49 22.57L90.01 31.46L92.49 22.57L93.62 22.57L90.63 33L89.44 33L86.89 24.07L84.34 33ZM94.87 36.08L94.87 36.08Q94.64 36.08 94.41 36.05Q94.18 36.01 93.96 35.93L93.96 35.93L93.96 34.95Q94.10 34.96 94.31 34.99Q94.53 35.03 94.76 35.03L94.76 35.03Q95.44 35.03 95.81 34.74Q96.17 34.46 96.52 33.64L96.52 33.64L96.79 33L93.79 25.50L94.92 25.50L97.37 31.68L99.82 25.50L100.99 25.50L97.56 33.95Q97.33 34.50 96.99 34.99Q96.65 35.48 96.13 35.78Q95.61 36.08 94.87 36.08ZM104.82 33.17L104.82 33.17Q103.74 33.17 102.93 32.62Q102.12 32.08 101.76 31.14L101.76 31.14L102.64 30.72Q102.96 31.40 103.54 31.81Q104.12 32.22 104.82 32.22L104.82 32.22Q105.49 32.22 105.96 31.89Q106.42 31.56 106.42 31.03L106.42 31.03Q106.42 30.63 106.19 30.40Q105.97 30.17 105.68 30.05Q105.38 29.92 105.16 29.86L105.16 29.86L104.08 29.56Q103.04 29.26 102.58 28.73Q102.12 28.20 102.12 27.50L102.12 27.50Q102.12 26.84 102.46 26.35Q102.79 25.86 103.37 25.59Q103.94 25.33 104.64 25.33L104.64 25.33Q105.59 25.33 106.37 25.82Q107.15 26.32 107.47 27.20L107.47 27.20L106.57 27.62Q106.29 26.99 105.77 26.64Q105.24 26.28 104.60 26.28L104.60 26.28Q103.97 26.28 103.59 26.60Q103.21 26.92 103.21 27.41L103.21 27.41Q103.21 27.79 103.41 28.02Q103.60 28.24 103.86 28.35Q104.12 28.46 104.32 28.52L104.32 28.52L105.56 28.88Q106.47 29.15 106.98 29.71Q107.50 30.27 107.50 31.03L107.50 31.03Q107.50 31.64 107.15 32.13Q106.81 32.62 106.21 32.90Q105.61 33.17 104.82 33.17ZM114.24 33L108.57 33L108.57 32.09L112.79 26.55L108.81 26.55L108.81 25.50L114.22 25.50L114.22 26.41L110.02 31.95L114.24 31.95L114.24 33ZM118.29 33.17L118.29 33.17Q117.51 33.17 116.86 32.80Q116.22 32.43 115.85 31.76Q115.48 31.10 115.48 30.23L115.48 30.23L115.48 25.50L116.53 25.50L116.53 30.10Q116.53 31.01 117.07 31.57Q117.62 32.12 118.47 32.12L118.47 32.12Q119.34 32.12 119.89 31.54Q120.45 30.97 120.45 29.96L120.45 29.96L120.45 25.50L121.50 25.50L121.50 33L120.45 33L120.45 32.08Q120.11 32.58 119.55 32.87Q118.99 33.17 118.29 33.17ZM124.70 33L123.65 33L123.65 22.40L124.70 22.40L124.70 29.30L128.47 25.50L129.83 25.50L126.89 28.51L130.09 33L128.83 33L126.13 29.28L124.70 30.75L124.70 33ZM133.49 33.17L133.49 33.17Q132.78 33.17 132.22 32.90Q131.66 32.62 131.34 32.15Q131.02 31.67 131.02 31.05L131.02 31.05Q131.02 30.19 131.59 29.54Q132.16 28.90 133.41 28.69L133.41 28.69L136.13 28.24L136.13 27.85Q136.13 27.18 135.64 26.76Q135.15 26.34 134.36 26.34L134.36 26.34Q133.68 26.34 133.16 26.68Q132.64 27.02 132.39 27.57L132.39 27.57L131.44 27.05Q131.65 26.57 132.10 26.18Q132.56 25.79 133.14 25.56Q133.73 25.33 134.36 25.33L134.36 25.33Q135.19 25.33 135.82 25.65Q136.46 25.97 136.82 26.54Q137.18 27.11 137.18 27.85L137.18 27.85L137.18 33L136.13 33L136.13 31.92Q135.76 32.47 135.06 32.82Q134.36 33.17 133.49 33.17ZM132.14 31.01L132.14 31.01Q132.14 31.52 132.53 31.87Q132.93 32.22 133.56 32.22L133.56 32.22Q134.33 32.22 134.91 31.89Q135.48 31.56 135.80 31.00Q136.13 30.44 136.13 29.75L136.13 29.75L136.13 29.19L133.66 29.60Q132.85 29.74 132.49 30.12Q132.14 30.49 132.14 31.01ZM140.38 24.11L139.33 24.11L139.33 22.57L140.38 22.57L140.38 24.11ZM137.93 36.08L137.93 36.08Q137.83 36.08 137.66 36.07Q137.48 36.05 137.37 36.02L137.37 36.02L137.37 35.06Q137.67 35.10 137.96 35.10L137.96 35.10Q138.53 35.10 138.93 34.75Q139.33 34.40 139.33 33.70L139.33 33.70L139.33 25.50L140.38 25.50L140.38 33.70Q140.38 34.47 140.05 35.00Q139.71 35.53 139.16 35.81Q138.60 36.08 137.93 36.08Z" fill="#FFFFFF"/><path d="M1138.65 26L1136.61 26L1136.61 16.56L1134.45 16.56L1134.45 14.83L1138.65 14.83L1138.65 26ZM1145.37 26.18L1145.37 26.18Q1144.05 26.18 1143.04 25.46Q1142.03 24.74 1141.46 23.43Q1140.90 22.13 1140.90 20.41L1140.90 20.41Q1140.90 18.68 1141.46 17.38Q1142.01 16.09 1143.02 15.37Q1144.04 14.64 1145.36 14.64L1145.36 14.64Q1146.71 14.64 1147.72 15.37Q1148.73 16.09 1149.29 17.38Q1149.86 18.68 1149.86 20.41L1149.86 20.41Q1149.86 22.13 1149.29 23.43Q1148.73 24.73 1147.73 25.45Q1146.72 26.18 1145.37 26.18ZM1145.37 24.32L1145.37 24.32Q1146.53 24.32 1147.17 23.27Q1147.82 22.22 1147.82 20.41L1147.82 20.41Q1147.82 18.59 1147.16 17.55Q1146.51 16.51 1145.36 16.51L1145.36 16.51Q1144.23 16.51 1143.59 17.55Q1142.94 18.59 1142.94 20.41L1142.94 20.41Q1142.94 22.22 1143.59 23.27Q1144.23 24.32 1145.37 24.32ZM1154.51 19.94L1152.53 19.94L1152.53 17.84L1154.51 17.84L1154.51 19.94ZM1154.51 26L1152.53 26L1152.53 23.90L1154.51 23.90L1154.51 26ZM1161.66 26.18L1161.66 26.18Q1160.34 26.18 1159.33 25.46Q1158.32 24.74 1157.75 23.43Q1157.19 22.13 1157.19 20.41L1157.19 20.41Q1157.19 18.68 1157.75 17.38Q1158.30 16.09 1159.31 15.37Q1160.33 14.64 1161.65 14.64L1161.65 14.64Q1163.00 14.64 1164.01 15.37Q1165.02 16.09 1165.58 17.38Q1166.15 18.68 1166.15 20.41L1166.15 20.41Q1166.15 22.13 1165.58 23.43Q1165.02 24.73 1164.02 25.45Q1163.01 26.18 1161.66 26.18ZM1161.66 24.32L1161.66 24.32Q1162.82 24.32 1163.46 23.27Q1164.11 22.22 1164.11 20.41L1164.11 20.41Q1164.11 18.59 1163.45 17.55Q1162.80 16.51 1161.65 16.51L1161.65 16.51Q1160.52 16.51 1159.88 17.55Q1159.23 18.59 1159.23 20.41L1159.23 20.41Q1159.23 22.22 1159.88 23.27Q1160.52 24.32 1161.66 24.32ZM1171.50 26.18L1171.50 26.18Q1170.36 26.18 1169.48 25.70Q1168.61 25.22 1168.11 24.38Q1167.62 23.54 1167.62 22.48L1167.62 22.48Q1167.62 21.94 1167.73 21.39Q1167.84 20.86 1168.15 20.24Q1168.45 19.63 1169.04 18.88L1169.04 18.88L1172.16 14.83L1174.59 14.83L1171.41 18.94Q1171.61 18.89 1171.85 18.89L1171.85 18.89Q1172.87 18.89 1173.66 19.36Q1174.45 19.82 1174.91 20.62Q1175.37 21.43 1175.37 22.43L1175.37 22.43Q1175.37 23.51 1174.88 24.36Q1174.38 25.20 1173.50 25.69Q1172.63 26.18 1171.50 26.18ZM1171.50 24.34L1171.50 24.34Q1172.27 24.34 1172.80 23.81Q1173.33 23.29 1173.33 22.46L1173.33 22.46Q1173.33 21.62 1172.80 21.10Q1172.27 20.59 1171.50 20.59L1171.50 20.59Q1170.72 20.59 1170.19 21.10Q1169.65 21.62 1169.65 22.46L1169.65 22.46Q1169.65 23.29 1170.19 23.81Q1170.72 24.34 1171.50 24.34Z" fill="#FFFFFF"/><path d="M1139.39 46L1138.49 46L1136.28 39.57L1137.30 39.57L1138.94 44.62L1140.48 39.57L1141.38 39.57L1142.93 44.62L1144.57 39.57L1145.58 39.57L1143.37 46L1142.47 46L1140.94 40.91L1139.39 46ZM1149.10 46.07L1149.10 46.07Q1148.23 46.07 1147.76 45.57Q1147.30 45.06 1147.30 44.13L1147.30 44.13L1147.30 40.47L1146.11 40.47L1146.11 39.57L1146.41 39.57Q1146.82 39.57 1147.06 39.30Q1147.30 39.03 1147.30 38.62L1147.30 38.62L1147.30 38.08L1148.20 38.08L1148.20 39.57L1149.61 39.57L1149.61 40.47L1148.20 40.47L1148.20 44.13Q1148.20 44.61 1148.42 44.92Q1148.65 45.23 1149.25 45.23L1149.25 45.23Q1149.35 45.23 1149.48 45.22Q1149.61 45.21 1149.71 45.20L1149.71 45.20L1149.71 46Q1149.56 46.04 1149.38 46.05Q1149.20 46.07 1149.10 46.07ZM1154.06 46.14L1154.06 46.14Q1153.15 46.14 1152.41 45.71Q1151.66 45.27 1151.23 44.51Q1150.79 43.74 1150.79 42.77L1150.79 42.77Q1150.79 41.81 1151.22 41.06Q1151.65 40.30 1152.39 39.86Q1153.13 39.42 1154.06 39.42L1154.06 39.42Q1155 39.42 1155.74 39.86Q1156.48 40.29 1156.90 41.04Q1157.33 41.80 1157.33 42.77L1157.33 42.77Q1157.33 43.76 1156.88 44.52Q1156.44 45.28 1155.70 45.71Q1154.96 46.14 1154.06 46.14ZM1154.06 45.24L1154.06 45.24Q1154.71 45.24 1155.23 44.92Q1155.76 44.60 1156.06 44.03Q1156.37 43.47 1156.37 42.77L1156.37 42.77Q1156.37 42.08 1156.06 41.52Q1155.76 40.97 1155.23 40.65Q1154.71 40.32 1154.06 40.32L1154.06 40.32Q1153.42 40.32 1152.89 40.65Q1152.37 40.97 1152.06 41.52Q1151.75 42.08 1151.75 42.77L1151.75 42.77Q1151.75 43.47 1152.06 44.03Q1152.37 44.60 1152.89 44.92Q1153.42 45.24 1154.06 45.24ZM1159.81 46L1158.91 46L1158.91 39.57L1159.81 39.57L1159.81 40.26Q1160.06 39.89 1160.49 39.69Q1160.92 39.48 1161.50 39.48L1161.50 39.48L1161.91 39.48L1161.91 40.38L1161.35 40.38Q1160.65 40.38 1160.23 40.82Q1159.81 41.25 1159.81 42.04L1159.81 42.04L1159.81 46ZM1165.90 46.14L1165.90 46.14Q1165.00 46.14 1164.27 45.71Q1163.54 45.27 1163.12 44.50Q1162.70 43.73 1162.70 42.76L1162.70 42.76Q1162.70 41.79 1163.11 41.04Q1163.52 40.29 1164.22 39.86Q1164.92 39.42 1165.80 39.42L1165.80 39.42Q1166.50 39.42 1167.04 39.68Q1167.59 39.94 1167.97 40.38Q1168.36 40.82 1168.56 41.36Q1168.76 41.91 1168.76 42.48L1168.76 42.48Q1168.76 42.60 1168.75 42.75Q1168.74 42.90 1168.72 43.06L1168.72 43.06L1163.65 43.06Q1163.68 43.76 1163.99 44.25Q1164.31 44.75 1164.82 45.03Q1165.32 45.30 1165.90 45.30L1165.90 45.30Q1166.60 45.30 1167.08 44.97Q1167.56 44.63 1167.86 44.13L1167.86 44.13L1168.63 44.54Q1168.44 44.97 1168.04 45.33Q1167.65 45.70 1167.10 45.92Q1166.56 46.14 1165.90 46.14ZM1165.80 40.26L1165.80 40.26Q1165.27 40.26 1164.82 40.50Q1164.36 40.74 1164.05 41.18Q1163.75 41.62 1163.68 42.22L1163.68 42.22L1167.79 42.22Q1167.78 41.64 1167.51 41.21Q1167.24 40.77 1166.79 40.52Q1166.34 40.26 1165.80 40.26ZM1171.25 46L1170.35 46L1170.35 36.92L1171.25 36.92L1171.25 42.83L1174.48 39.57L1175.64 39.57L1173.12 42.15L1175.87 46L1174.79 46L1172.47 42.81L1171.25 44.07L1171.25 46Z" fill="#FFFFFF"/></g>
</svg>