<svg xmlns="http://www.w3.org/2000/svg" id="static" viewBox="0 0 1200 800" width="1200" height="800" font-family="Arial, Helvetica, sans-serif">
<style>
.a-blink{animation:a-blink 1.2s ease-in-out infinite}
.a-blink-slow{animation:a-blink 3s ease-in-out infinite}
.a-glow{animation:a-glow 5s ease-in-out infinite}
.a-pulse{animation:a-pulse 2.2s ease-in-out infinite}
.a-steam{animation:a-steam 2.8s ease-in-out infinite;transform-box:fill-box;transform-origin:center bottom}
.a-sway{animation:a-sway 6s ease-in-out infinite;transform-box:fill-box;transform-origin:center bottom}
.a-flutter{animation:a-flutter 4.5s ease-in-out infinite;transform-box:fill-box;transform-origin:center top}
.a-bounce{animation:a-bounce 2.6s ease-in-out infinite;transform-box:fill-box;transform-origin:center}
.a-ring{animation:a-ring 1.2s ease-in-out infinite;transform-box:fill-box;transform-origin:center}
.a-wave{animation:a-wave 1.2s ease-out infinite}
.a-grow{animation:a-grow .9s ease-in-out infinite;transform-box:fill-box;transform-origin:center}
.a-shimmer{animation:a-shimmer 3.5s ease-in-out infinite}
.d1{animation-delay:.35s}.d2{animation-delay:.7s}
@keyframes a-blink{0%,100%{opacity:1}50%{opacity:.2}}
@keyframes a-glow{0%,100%{opacity:1}50%{opacity:.65}}
@keyframes a-pulse{0%,100%{opacity:1}50%{opacity:.45}}
@keyframes a-steam{0%{opacity:0;transform:translateY(6px)}40%{opacity:.9}100%{opacity:0;transform:translateY(-10px)}}
@keyframes a-sway{0%,100%{transform:rotate(0)}50%{transform:rotate(1.6deg)}}
@keyframes a-flutter{0%,100%{transform:rotate(0)}50%{transform:rotate(-1.4deg)}}
@keyframes a-bounce{0%,70%,100%{transform:scale(1)}80%{transform:scale(1.18)}90%{transform:scale(.95)}}
@keyframes a-ring{0%,100%{transform:rotate(0)}10%{transform:rotate(-2.5deg)}20%{transform:rotate(2.5deg)}30%{transform:rotate(-2.5deg)}40%{transform:rotate(0)}}
@keyframes a-wave{0%{opacity:0}30%{opacity:1}100%{opacity:0}}
@keyframes a-grow{0%,100%{transform:scale(1)}50%{transform:scale(1.12)}}
@keyframes a-shimmer{0%,100%{opacity:.55}50%{opacity:1}}
@media (prefers-reduced-motion: reduce){*{animation:none!important}}
#static:target *{animation:none!important}
</style>
<rect width="1200" height="800" fill="#4E40B8"/>
<g id="item-outlook" transform="translate(60 50) scale(1.6)"><rect x="20" y="16" width="80" height="72" rx="12" fill="#6C5CE7"/><rect x="34" y="34" width="52" height="36" rx="4" fill="#FFFFFF"/><path d="M34 36 l26 20 l26 -20" fill="none" stroke="#6C5CE7" stroke-width="4"/><rect x="6" y="98" width="108" height="24" rx="6" fill="#2B2440" opacity="0.35"/><text x="60" y="115" font-size="14" fill="#FFFFFF" font-weight="bold" text-anchor="middle">Poczta</text><g class="a-bounce"><circle cx="98" cy="20" r="14" fill="#E5484D"/><text x="98" y="25" font-size="14" fill="#FFFFFF" font-weight="bold" text-anchor="middle">1</text></g></g>
<g id="item-przegladarka" transform="translate(60 270) scale(1.6)"><circle cx="60" cy="52" r="38" fill="#3AA6B9"/><ellipse cx="60" cy="52" rx="16" ry="38" fill="none" stroke="#FFFFFF" stroke-width="4"/><line x1="22" y1="52" x2="98" y2="52" stroke="#FFFFFF" stroke-width="4"/><rect x="6" y="98" width="108" height="24" rx="6" fill="#2B2440" opacity="0.35"/><text x="60" y="115" font-size="14" fill="#FFFFFF" font-weight="bold" text-anchor="middle">Internet</text></g>
<g id="item-faktury" transform="translate(60 490) scale(1.6)"><path d="M22 30 h32 l10 10 h44 v50 a6 6 0 0 1 -6 6 h-74 a6 6 0 0 1 -6 -6 z" fill="#E6C845"/><rect x="22" y="46" width="86" height="50" rx="6" fill="#FFE066"/><rect x="6" y="98" width="108" height="24" rx="6" fill="#2B2440" opacity="0.35"/><text x="60" y="115" font-size="14" fill="#FFFFFF" font-weight="bold" text-anchor="middle">Faktury</text></g>
<g id="item-arkusz" transform="translate(300 50) scale(1.6)"><rect x="26" y="14" width="68" height="78" rx="6" fill="#2FB36B"/><rect x="36" y="28" width="48" height="10" fill="#FFFFFF" opacity="0.9"/><rect x="36" y="44" width="48" height="10" fill="#FFFFFF" opacity="0.9"/><rect x="36" y="60" width="48" height="10" fill="#FFFFFF" opacity="0.9"/><rect x="36" y="76" width="48" height="10" fill="#FFFFFF" opacity="0.9"/><rect x="6" y="98" width="108" height="24" rx="6" fill="#2B2440" opacity="0.35"/><text x="60" y="115" font-size="14" fill="#FFFFFF" font-weight="bold" text-anchor="middle">Przelewy</text></g>
<g id="item-gra" transform="translate(300 270) scale(1.6)"><defs><linearGradient id="sky-gra" x1="0" y1="0" x2="0" y2="1"><stop offset="0" stop-color="#3B2A7A"/><stop offset="0.55" stop-color="#E0527E"/><stop offset="1" stop-color="#F7A24B"/></linearGradient><clipPath id="ic-gra"><rect x="18" y="12" width="84" height="80" rx="16"/></clipPath></defs><g clip-path="url(#ic-gra)"><rect x="18" y="12" width="84" height="80" fill="url(#sky-gra)"/><circle cx="60" cy="62" r="20" fill="#FFD36E"/><rect x="36" y="60" width="48" height="2" fill="#E0527E"/><rect x="36" y="66" width="48" height="3" fill="#E0527E"/><rect x="36" y="72" width="48" height="4" fill="#E0527E"/><rect x="18" y="76" width="84" height="16" fill="#2B2440"/><rect x="30" y="83" width="12" height="2" fill="#FFD36E"/><rect x="54" y="83" width="12" height="2" fill="#FFD36E"/><rect x="78" y="83" width="12" height="2" fill="#FFD36E"/><path d="M30 76 q2 -22 -2 -40" stroke="#2B2440" stroke-width="3" fill="none"/><path d="M28 36 q-12 -2 -16 8 M28 36 q-10 -8 -18 -4 M28 36 q4 -12 14 -12 M28 36 q12 -4 16 6 M28 36 q2 -10 -2 -16" stroke="#2B2440" stroke-width="4" fill="none" stroke-linecap="round"/><path d="M58 76 l4 -7 h18 l6 5 h8 v4 z" fill="#2B2440"/></g><rect x="74" y="14" width="26" height="22" rx="5" fill="#FFFFFF"/><text x="87" y="31" font-size="17" fill="#E0527E" font-weight="bold" text-anchor="middle">6</text><rect x="6" y="98" width="108" height="24" rx="6" fill="#2B2440" opacity="0.35"/><text x="60" y="115" font-size="14" fill="#FFFFFF" font-weight="bold" text-anchor="middle">GTA6_PL.exe</text></g>
<g id="item-kosz" transform="translate(980 50) scale(1.6)"><rect x="34" y="30" width="52" height="60" rx="6" fill="#8C8FA8"/><rect x="26" y="20" width="68" height="12" rx="4" fill="#8C8FA8"/><rect x="48" y="12" width="24" height="10" rx="3" fill="#8C8FA8"/><rect x="46" y="42" width="6" height="38" rx="3" fill="#FFFFFF"/><rect x="68" y="42" width="6" height="38" rx="3" fill="#FFFFFF"/><rect x="6" y="98" width="108" height="24" rx="6" fill="#2B2440" opacity="0.35"/><text x="60" y="115" font-size="14" fill="#FFFFFF" font-weight="bold" text-anchor="middle">Kosz</text></g>
<g id="item-pasek" transform="translate(0 744) scale(1)"><rect width="1200" height="56" fill="#2B2440"/><rect x="14" y="14" width="28" height="28" rx="6" fill="#6C5CE7"/><rect x="21" y="21" width="6" height="6" fill="#FFFFFF"/><rect x="29" y="21" width="6" height="6" fill="#FFFFFF"/><rect x="21" y="29" width="6" height="6" fill="#FFFFFF"/><rect x="29" y="29" width="6" height="6" fill="#FFFFFF"/><rect x="60" y="12" width="260" height="32" rx="16" fill="#FFFFFF" opacity="0.15"/><text x="80" y="33" font-size="14" fill="#FFFFFF">Wyszukaj</text><text x="1176" y="26" font-size="15" fill="#FFFFFF" font-weight="bold" text-anchor="end">10:06</text><text x="1176" y="46" font-size="12" fill="#FFFFFF" text-anchor="end">wtorek</text></g>
</svg>