<svg xmlns="http://www.w3.org/2000/svg" id="static" viewBox="0 0 600 260" width="600" height="260">
<style>
.a-blink{animation:a-blink 1.2s ease-in-out infinite}
.a-blink-slow{animation:a-blink 3s ease-in-out infinite}
.a-glow{animation:a-glow 5s ease-in-out infinite}
.a-pulse{animation:a-pulse 2.2s ease-in-out infinite}
.a-steam{animation:a-steam 2.8s ease-in-out infinite;transform-box:fill-box;transform-origin:center bottom}
.a-sway{animation:a-sway 6s ease-in-out infinite;transform-box:fill-box;transform-origin:center bottom}
.a-flutter{animation:a-flutter 4.5s ease-in-out infinite;transform-box:fill-box;transform-origin:center top}
.a-bounce{animation:a-bounce 2.6s ease-in-out infinite;transform-box:fill-box;transform-origin:center}
.a-ring{animation:a-ring 1.2s ease-in-out infinite;transform-box:fill-box;transform-origin:center}
.a-wave{animation:a-wave 1.2s ease-out infinite}
.a-grow{animation:a-grow .9s ease-in-out infinite;transform-box:fill-box;transform-origin:center}
.a-shimmer{animation:a-shimmer 3.5s ease-in-out infinite}
.d1{animation-delay:.35s}.d2{animation-delay:.7s}
@keyframes a-blink{0%,100%{opacity:1}50%{opacity:.2}}
@keyframes a-glow{0%,100%{opacity:1}50%{opacity:.65}}
@keyframes a-pulse{0%,100%{opacity:1}50%{opacity:.45}}
@keyframes a-steam{0%{opacity:0;transform:translateY(6px)}40%{opacity:.9}100%{opacity:0;transform:translateY(-10px)}}
@keyframes a-sway{0%,100%{transform:rotate(0)}50%{transform:rotate(1.6deg)}}
@keyframes a-flutter{0%,100%{transform:rotate(0)}50%{transform:rotate(-1.4deg)}}
@keyframes a-bounce{0%,70%,100%{transform:scale(1)}80%{transform:scale(1.18)}90%{transform:scale(.95)}}
@keyframes a-ring{0%,100%{transform:rotate(0)}10%{transform:rotate(-2.5deg)}20%{transform:rotate(2.5deg)}30%{transform:rotate(-2.5deg)}40%{transform:rotate(0)}}
@keyframes a-wave{0%{opacity:0}30%{opacity:1}100%{opacity:0}}
@keyframes a-grow{0%,100%{transform:scale(1)}50%{transform:scale(1.12)}}
@keyframes a-shimmer{0%,100%{opacity:.55}50%{opacity:1}}
@media (prefers-reduced-motion: reduce){*{animation:none!important}}
#static:target *{animation:none!important}
</style>
<g id="item-pieczec" transform="translate(0 0) scale(1)"><g transform="translate(20 30) rotate(-8 280 100)" opacity="0.92"><rect x="10" y="20" width="540" height="160" rx="18" fill="none" stroke="#E5484D" stroke-width="10"/><rect x="26" y="36" width="508" height="128" rx="10" fill="none" stroke="#E5484D" stroke-width="3"/><path d="M74.08 108.48L74.08 108.48Q71.24 108.48 68.82 107.44Q66.40 106.40 64.66 104.54Q62.92 102.68 62.12 100.20L62.12 100.20L66.64 98.24Q67.72 100.84 69.76 102.28Q71.80 103.72 74.36 103.72L74.36 103.72Q76.48 103.72 77.78 102.74Q79.08 101.76 79.08 100.08L79.08 100.08Q79.08 98.76 78.30 97.92Q77.52 97.08 75.96 96.56L75.96 96.56L70.24 94.72Q66.76 93.60 65.00 91.46Q63.24 89.32 63.24 86.40L63.24 86.40Q63.24 83.84 64.50 81.88Q65.76 79.92 68.00 78.82Q70.24 77.72 73.20 77.72L73.20 77.72Q77.20 77.72 80.20 79.76Q83.20 81.80 84.40 85.16L84.40 85.16L79.92 87.16Q79.04 84.96 77.28 83.72Q75.52 82.48 73.20 82.48L73.20 82.48Q71.12 82.48 69.86 83.50Q68.60 84.52 68.60 86.16L68.60 86.16Q68.60 88.76 71.84 89.80L71.84 89.80L77.32 91.52Q84.44 93.80 84.44 99.76L84.44 99.76Q84.44 102.32 83.12 104.28Q81.80 106.24 79.46 107.36Q77.12 108.48 74.08 108.48ZM96.76 108L91.32 108L91.32 78.20L102.44 78.20Q105.48 78.20 107.82 79.30Q110.16 80.40 111.48 82.50Q112.80 84.60 112.80 87.60L112.80 87.60Q112.80 90.60 111.46 92.70Q110.12 94.80 107.78 95.90Q105.44 97 102.44 97L102.44 97L96.76 97L96.76 108ZM96.76 83L96.76 92.20L102.52 92.20Q104.68 92.20 106.02 90.94Q107.36 89.68 107.36 87.60L107.36 87.60Q107.36 85.52 106.02 84.26Q104.68 83 102.52 83L102.52 83L96.76 83ZM124.68 108L119.24 108L119.24 78.20L130.32 78.20Q133.36 78.20 135.70 79.30Q138.04 80.40 139.36 82.50Q140.68 84.60 140.68 87.60L140.68 87.60Q140.68 90.72 139.22 92.88Q137.76 95.04 135.28 96.04L135.28 96.04L142.12 108L135.96 108L129.80 97L124.68 97L124.68 108ZM124.68 83L124.68 92.20L130.40 92.20Q132.60 92.20 133.92 90.94Q135.24 89.68 135.24 87.60L135.24 87.60Q135.24 85.52 133.92 84.26Q132.60 83 130.40 83L130.40 83L124.68 83ZM151.12 108L145.24 108L155.52 78.20L162.56 78.20L172.84 108L166.92 108L164.80 101.60L153.28 101.60L151.12 108ZM159.04 84.24L154.84 96.80L163.24 96.80L159.04 84.24ZM188.36 108L182.12 108L174.12 78.20L179.96 78.20L185.48 100.56L191.28 78.20L196.92 78.20L202.68 100.56L208.20 78.20L214.04 78.20L206.04 108L199.80 108L194.08 86.56L188.36 108ZM221.20 108L215.32 108L225.60 78.20L232.64 78.20L242.92 108L237.00 108L234.88 101.60L223.36 101.60L221.20 108ZM229.12 84.24L224.92 96.80L233.32 96.80L229.12 84.24ZM276.80 108L255.04 108L255.04 103.72L269.48 83L255.88 83L255.88 78.20L276.40 78.20L276.40 82.48L262.00 103.20L276.80 103.20L276.80 108ZM285.64 108L279.76 108L290.04 78.20L297.08 78.20L307.36 108L301.44 108L299.32 101.60L287.80 101.60L285.64 108ZM293.56 84.24L289.36 96.80L297.76 96.80L293.56 84.24ZM318.12 108L312.68 108L312.68 78.20L317.88 78.20L327.76 91.64L337.48 78.20L342.68 78.20L342.68 108L337.20 108L337.20 87.76L328.00 100L327.36 100L318.12 87.40L318.12 108ZM355.84 108L350.40 108L350.40 78.20L355.84 78.20L355.84 91.48L367.04 78.20L373.88 78.20L363.56 90.48L374.24 108L367.84 108L359.84 94.88L355.84 99.64L355.84 108ZM385 108L379.56 108L379.56 78.20L383.80 78.20L398 97.32L398 78.20L403.44 78.20L403.44 108L399.16 108L385 88.52L385 108ZM416.64 108L411.20 108L411.20 78.20L416.64 78.20L416.64 108ZM444.16 108L424.36 108L424.36 78.20L444.16 78.20L444.16 83L429.80 83L429.80 90.64L443.36 90.64L443.36 95.44L429.80 95.44L429.80 103.20L444.16 103.20L444.16 108ZM439.08 117.48L439.08 117.48Q436.56 117.48 435.04 116.12Q433.52 114.76 433.52 112.72L433.52 112.72Q433.52 110.44 435 108.70Q436.48 106.96 439.56 106.44L439.56 106.44L440.72 106.44L440.72 108Q439.48 108.24 438.64 109.34Q437.80 110.44 437.80 111.96L437.80 111.96Q437.80 112.96 438.46 113.48Q439.12 114 439.92 114L439.92 114Q440.60 114 441.12 113.80Q441.64 113.60 442.20 113.16L442.20 113.16L443.32 116.16Q442.48 116.76 441.44 117.12Q440.40 117.48 439.08 117.48ZM460.92 108L455.44 108L455.44 83L447.72 83L447.72 78.20L468.52 78.20L468.52 83L460.92 83L460.92 108ZM475.28 108L469.40 108L479.68 78.20L486.72 78.20L497.00 108L491.08 108L488.96 101.60L477.44 101.60L475.28 108ZM483.20 84.24L479.00 96.80L487.40 96.80L483.20 84.24Z" fill="#E5484D"/><path d="M92.36 148L89.55 148L85.95 134.59L88.58 134.59L91.06 144.65L93.67 134.59L96.21 134.59L98.80 144.65L101.29 134.59L103.92 134.59L100.32 148L97.51 148L94.93 138.35L92.36 148ZM114.30 148L111.83 148L111.83 142.06L107.31 134.59L110.10 134.59L113.05 139.58L116.01 134.59L118.80 134.59L114.30 142.04L114.30 148ZM127.66 148L123.29 148L123.29 134.59L127.66 134.59Q129.79 134.59 131.36 135.44Q132.94 136.30 133.80 137.81Q134.67 139.32 134.67 141.29L134.67 141.29Q134.67 143.25 133.80 144.77Q132.94 146.29 131.36 147.15Q129.79 148 127.66 148L127.66 148ZM125.74 136.75L125.74 145.84L127.72 145.84Q129.09 145.84 130.09 145.28Q131.10 144.72 131.65 143.70Q132.20 142.67 132.20 141.29L132.20 141.29Q132.20 139.90 131.64 138.88Q131.08 137.87 130.08 137.31Q129.09 136.75 127.72 136.75L127.72 136.75L125.74 136.75ZM148.36 148L138.57 148L138.57 146.07L145.06 136.75L138.94 136.75L138.94 134.59L148.18 134.59L148.18 136.52L141.70 145.84L148.36 145.84L148.36 148ZM155.34 148L152.89 148L152.89 134.59L155.34 134.59L155.34 148ZM162.46 148L159.81 148L164.44 134.59L167.61 134.59L172.23 148L169.57 148L168.61 145.12L163.43 145.12L162.46 148ZM166.02 137.31L164.13 142.96L167.91 142.96L166.02 137.31ZM186.12 148L177.93 148L177.93 143.16L176.08 144.24L176.08 141.93L177.93 140.85L177.93 134.59L180.38 134.59L180.38 139.41L182.25 138.33L182.25 140.64L180.38 141.74L180.38 145.84L186.12 145.84L186.12 148ZM203.23 148.22L203.23 148.22Q201.79 148.22 200.56 147.70Q199.34 147.19 198.43 146.25Q197.52 145.32 197.03 144.05Q196.53 142.78 196.53 141.29L196.53 141.29Q196.53 139.79 197.03 138.53Q197.52 137.27 198.43 136.34Q199.34 135.40 200.56 134.89Q201.79 134.37 203.23 134.37L203.23 134.37Q204.65 134.37 205.80 134.86Q206.95 135.35 207.75 136.15Q208.54 136.95 208.88 137.90L208.88 137.90L206.68 138.93Q206.31 137.92 205.41 137.26Q204.51 136.61 203.23 136.61L203.23 136.61Q201.97 136.61 201.00 137.19Q200.04 137.78 199.51 138.84Q198.98 139.90 198.98 141.29L198.98 141.29Q198.98 142.69 199.51 143.75Q200.04 144.81 201.00 145.40Q201.97 145.98 203.23 145.98L203.23 145.98Q204.51 145.98 205.41 145.34Q206.31 144.69 206.68 143.66L206.68 143.66L208.88 144.69Q208.54 145.64 207.75 146.44Q206.95 147.24 205.80 147.73Q204.65 148.22 203.23 148.22ZM219.57 148L217.10 148L217.10 142.06L212.58 134.59L215.37 134.59L218.32 139.58L221.28 134.59L224.07 134.59L219.57 142.04L219.57 148ZM234.21 148L228.56 148L228.56 134.59L234.21 134.59Q236.19 134.59 237.33 135.60Q238.46 136.61 238.46 138.37L238.46 138.37Q238.46 139.05 238.20 139.67Q237.94 140.28 237.38 140.78L237.38 140.78Q238.28 141.38 238.64 142.18Q239.00 142.98 239.00 143.90L239.00 143.90Q239.00 145.84 237.73 146.92Q236.46 148 234.21 148L234.21 148ZM231.01 136.68L231.01 139.79L234.34 139.79Q235.09 139.79 235.54 139.35Q235.99 138.91 235.99 138.21L235.99 138.21Q235.99 137.51 235.54 137.09Q235.09 136.68 234.34 136.68L234.34 136.68L231.01 136.68ZM231.01 141.93L231.01 145.84L234.46 145.84Q235.40 145.84 235.98 145.31Q236.55 144.78 236.55 143.90L236.55 143.90Q236.55 143.01 235.98 142.47Q235.40 141.93 234.46 141.93L234.46 141.93L231.01 141.93ZM252.91 148L244.00 148L244.00 134.59L252.91 134.59L252.91 136.75L246.45 136.75L246.45 140.19L252.55 140.19L252.55 142.35L246.45 142.35L246.45 145.84L252.91 145.84L252.91 148ZM260.16 148L257.71 148L257.71 134.59L262.69 134.59Q264.06 134.59 265.11 135.09Q266.17 135.58 266.76 136.53Q267.36 137.47 267.36 138.82L267.36 138.82Q267.36 140.22 266.70 141.20Q266.04 142.17 264.93 142.62L264.93 142.62L268.00 148L265.23 148L262.46 143.05L260.16 143.05L260.16 148ZM260.16 136.75L260.16 140.89L262.73 140.89Q263.72 140.89 264.31 140.32Q264.91 139.76 264.91 138.82L264.91 138.82Q264.91 137.88 264.31 137.32Q263.72 136.75 262.73 136.75L262.73 136.75L260.16 136.75ZM278.26 148L272.61 148L272.61 134.59L278.26 134.59Q280.24 134.59 281.37 135.60Q282.51 136.61 282.51 138.37L282.51 138.37Q282.51 139.05 282.24 139.67Q281.98 140.28 281.43 140.78L281.43 140.78Q282.33 141.38 282.69 142.18Q283.05 142.98 283.05 143.90L283.05 143.90Q283.05 145.84 281.78 146.92Q280.51 148 278.26 148L278.26 148ZM275.05 136.68L275.05 139.79L278.38 139.79Q279.14 139.79 279.59 139.35Q280.04 138.91 280.04 138.21L280.04 138.21Q280.04 137.51 279.59 137.09Q279.14 136.68 278.38 136.68L278.38 136.68L275.05 136.68ZM275.05 141.93L275.05 145.84L278.51 145.84Q279.45 145.84 280.02 145.31Q280.60 144.78 280.60 143.90L280.60 143.90Q280.60 143.01 280.02 142.47Q279.45 141.93 278.51 141.93L278.51 141.93L275.05 141.93ZM296.95 148L288.04 148L288.04 134.59L296.95 134.59L296.95 136.75L290.49 136.75L290.49 140.19L296.59 140.19L296.59 142.35L290.49 142.35L290.49 145.84L296.95 145.84L296.95 148ZM310.50 148L300.71 148L300.71 146.07L307.21 136.75L301.09 136.75L301.09 134.59L310.32 134.59L310.32 136.52L303.84 145.84L310.50 145.84L310.50 148ZM317.48 148L315.03 148L315.03 134.59L320.04 134.59Q321.40 134.59 322.46 135.09Q323.51 135.58 324.10 136.53Q324.70 137.47 324.70 138.82L324.70 138.82Q324.70 140.17 324.09 141.12Q323.49 142.06 322.44 142.56Q321.38 143.05 320.04 143.05L320.04 143.05L317.48 143.05L317.48 148ZM317.48 136.75L317.48 140.89L320.07 140.89Q321.04 140.89 321.65 140.32Q322.25 139.76 322.25 138.82L322.25 138.82Q322.25 137.88 321.65 137.32Q321.04 136.75 320.07 136.75L320.07 136.75L317.48 136.75ZM332.14 148L329.69 148L329.69 134.59L332.14 134.59L332.14 148ZM346.63 148L337.72 148L337.72 134.59L346.63 134.59L346.63 136.75L340.17 136.75L340.17 140.19L346.27 140.19L346.27 142.35L340.17 142.35L340.17 145.84L346.63 145.84L346.63 148ZM357.73 148.22L357.73 148.22Q356.29 148.22 355.06 147.70Q353.84 147.19 352.93 146.25Q352.02 145.32 351.53 144.05Q351.03 142.78 351.03 141.29L351.03 141.29Q351.03 139.79 351.53 138.53Q352.02 137.27 352.93 136.34Q353.84 135.40 355.06 134.89Q356.29 134.37 357.73 134.37L357.73 134.37Q359.15 134.37 360.30 134.86Q361.45 135.35 362.24 136.15Q363.04 136.95 363.38 137.90L363.38 137.90L361.18 138.93Q360.80 137.92 359.90 137.26Q359.00 136.61 357.73 136.61L357.73 136.61Q356.47 136.61 355.50 137.19Q354.54 137.78 354.01 138.84Q353.48 139.90 353.48 141.29L353.48 141.29Q353.48 142.69 354.01 143.75Q354.54 144.81 355.50 145.40Q356.47 145.98 357.73 145.98L357.73 145.98Q359.00 145.98 359.90 145.34Q360.80 144.69 361.18 143.66L361.18 143.66L363.38 144.69Q363.04 145.64 362.24 146.44Q361.45 147.24 360.30 147.73Q359.15 148.22 357.73 148.22ZM377.11 148L367.31 148L367.31 146.07L373.81 136.75L367.69 136.75L367.69 134.59L376.93 134.59L376.93 136.52L370.45 145.84L377.11 145.84L377.11 148ZM390.55 148L381.64 148L381.64 134.59L390.55 134.59L390.55 136.75L384.09 136.75L384.09 140.19L390.19 140.19L390.19 142.35L384.09 142.35L384.09 145.84L390.55 145.84L390.55 148ZM397.80 148L395.35 148L395.35 134.59L397.25 134.59L403.64 143.19L403.64 134.59L406.09 134.59L406.09 148L404.17 148L397.80 139.23L397.80 148ZM401.88 132.84L399.56 132.84L400.73 129.73L403.79 129.73L401.88 132.84ZM416.47 148.22L416.47 148.22Q415.19 148.22 414.11 147.75Q413.02 147.28 412.23 146.44Q411.45 145.61 411.09 144.49L411.09 144.49L413.13 143.61Q413.61 144.78 414.53 145.43Q415.45 146.07 416.60 146.07L416.60 146.07Q417.55 146.07 418.14 145.63Q418.72 145.19 418.72 144.44L418.72 144.44Q418.72 143.84 418.37 143.46Q418.02 143.09 417.32 142.85L417.32 142.85L414.75 142.02Q413.18 141.52 412.39 140.56Q411.60 139.59 411.60 138.28L411.60 138.28Q411.60 137.13 412.16 136.25Q412.73 135.36 413.74 134.87Q414.75 134.37 416.08 134.37L416.08 134.37Q417.88 134.37 419.23 135.29Q420.58 136.21 421.12 137.72L421.12 137.72L419.10 138.62Q418.70 137.63 417.91 137.07Q417.12 136.52 416.08 136.52L416.08 136.52Q415.14 136.52 414.57 136.97Q414.01 137.43 414.01 138.17L414.01 138.17Q414.01 139.34 415.47 139.81L415.47 139.81L417.93 140.58Q421.13 141.61 421.13 144.29L421.13 144.29Q421.13 145.44 420.54 146.33Q419.95 147.21 418.89 147.71Q417.84 148.22 416.47 148.22ZM431.17 148L428.71 148L428.71 136.75L425.23 136.75L425.23 134.59L434.59 134.59L434.59 136.75L431.17 136.75L431.17 148ZM444.40 148L441.59 148L437.99 134.59L440.62 134.59L443.10 144.65L445.71 134.59L448.25 134.59L450.84 144.65L453.32 134.59L455.95 134.59L452.35 148L449.55 148L446.97 138.35L444.40 148ZM461.27 148L458.63 148L463.25 134.59L466.42 134.59L471.05 148L468.38 148L467.43 145.12L462.25 145.12L461.27 148ZM464.84 137.31L462.95 142.96L466.73 142.96L464.84 137.31Z" fill="#E5484D"/></g></g>
</svg>