<svg xmlns="http://www.w3.org/2000/svg" id="static" viewBox="0 0 900 1600" width="900" height="1600" font-family="Arial, Helvetica, sans-serif">
<style>
.a-blink{animation:a-blink 1.2s ease-in-out infinite}
.a-blink-slow{animation:a-blink 3s ease-in-out infinite}
.a-glow{animation:a-glow 5s ease-in-out infinite}
.a-pulse{animation:a-pulse 2.2s ease-in-out infinite}
.a-steam{animation:a-steam 2.8s ease-in-out infinite;transform-box:fill-box;transform-origin:center bottom}
.a-sway{animation:a-sway 6s ease-in-out infinite;transform-box:fill-box;transform-origin:center bottom}
.a-flutter{animation:a-flutter 4.5s ease-in-out infinite;transform-box:fill-box;transform-origin:center top}
.a-bounce{animation:a-bounce 2.6s ease-in-out infinite;transform-box:fill-box;transform-origin:center}
.a-ring{animation:a-ring 1.2s ease-in-out infinite;transform-box:fill-box;transform-origin:center}
.a-wave{animation:a-wave 1.2s ease-out infinite}
.a-grow{animation:a-grow .9s ease-in-out infinite;transform-box:fill-box;transform-origin:center}
.a-shimmer{animation:a-shimmer 3.5s ease-in-out infinite}
.d1{animation-delay:.35s}.d2{animation-delay:.7s}
@keyframes a-blink{0%,100%{opacity:1}50%{opacity:.2}}
@keyframes a-glow{0%,100%{opacity:1}50%{opacity:.65}}
@keyframes a-pulse{0%,100%{opacity:1}50%{opacity:.45}}
@keyframes a-steam{0%{opacity:0;transform:translateY(6px)}40%{opacity:.9}100%{opacity:0;transform:translateY(-10px)}}
@keyframes a-sway{0%,100%{transform:rotate(0)}50%{transform:rotate(1.6deg)}}
@keyframes a-flutter{0%,100%{transform:rotate(0)}50%{transform:rotate(-1.4deg)}}
@keyframes a-bounce{0%,70%,100%{transform:scale(1)}80%{transform:scale(1.18)}90%{transform:scale(.95)}}
@keyframes a-ring{0%,100%{transform:rotate(0)}10%{transform:rotate(-2.5deg)}20%{transform:rotate(2.5deg)}30%{transform:rotate(-2.5deg)}40%{transform:rotate(0)}}
@keyframes a-wave{0%{opacity:0}30%{opacity:1}100%{opacity:0}}
@keyframes a-grow{0%,100%{transform:scale(1)}50%{transform:scale(1.12)}}
@keyframes a-shimmer{0%,100%{opacity:.55}50%{opacity:1}}
@media (prefers-reduced-motion: reduce){*{animation:none!important}}
#static:target *{animation:none!important}
</style>
<rect width="900" height="1600" fill="#D9C3A5"/>
<g id="item-sloje" transform="translate(0 0) scale(1)"><path d="M0 30 C 225 24, 450 36, 675 27 S 900 33, 900 30" fill="none" stroke="#B89C7A" stroke-width="3" opacity="0.28"/><path d="M0 137 C 225 128, 450 146, 675 132.5 S 900 141.5, 900 137" fill="none" stroke="#B89C7A" stroke-width="2" opacity="0.28"/><path d="M0 244 C 225 232, 450 256, 675 238 S 900 250, 900 244" fill="none" stroke="#B89C7A" stroke-width="3" opacity="0.28"/><path d="M0 330 C 225 315, 450 345, 675 322.5 S 900 337.5, 900 330" fill="none" stroke="#B89C7A" stroke-width="2" opacity="0.28"/><path d="M0 437 C 225 431, 450 443, 675 434 S 900 440, 900 437" fill="none" stroke="#B89C7A" stroke-width="3" opacity="0.28"/><path d="M0 544 C 225 535, 450 553, 675 539.5 S 900 548.5, 900 544" fill="none" stroke="#B89C7A" stroke-width="2" opacity="0.28"/><path d="M0 630 C 225 618, 450 642, 675 624 S 900 636, 900 630" fill="none" stroke="#B89C7A" stroke-width="3" opacity="0.28"/><path d="M0 737 C 225 722, 450 752, 675 729.5 S 900 744.5, 900 737" fill="none" stroke="#B89C7A" stroke-width="2" opacity="0.28"/><path d="M0 844 C 225 838, 450 850, 675 841 S 900 847, 900 844" fill="none" stroke="#B89C7A" stroke-width="3" opacity="0.28"/><path d="M0 930 C 225 921, 450 939, 675 925.5 S 900 934.5, 900 930" fill="none" stroke="#B89C7A" stroke-width="2" opacity="0.28"/><path d="M0 1037 C 225 1025, 450 1049, 675 1031 S 900 1043, 900 1037" fill="none" stroke="#B89C7A" stroke-width="3" opacity="0.28"/><path d="M0 1144 C 225 1129, 450 1159, 675 1136.5 S 900 1151.5, 900 1144" fill="none" stroke="#B89C7A" stroke-width="2" opacity="0.28"/><path d="M0 1230 C 225 1224, 450 1236, 675 1227 S 900 1233, 900 1230" fill="none" stroke="#B89C7A" stroke-width="3" opacity="0.28"/><path d="M0 1337 C 225 1328, 450 1346, 675 1332.5 S 900 1341.5, 900 1337" fill="none" stroke="#B89C7A" stroke-width="2" opacity="0.28"/><path d="M0 1444 C 225 1432, 450 1456, 675 1438 S 900 1450, 900 1444" fill="none" stroke="#B89C7A" stroke-width="3" opacity="0.28"/><path d="M0 1530 C 225 1515, 450 1545, 675 1522.5 S 900 1537.5, 900 1530" fill="none" stroke="#B89C7A" stroke-width="2" opacity="0.28"/><ellipse cx="648" cy="480" rx="46" ry="14" fill="none" stroke="#B89C7A" stroke-width="3" opacity="0.3"/><ellipse cx="648" cy="480" rx="24" ry="6" fill="none" stroke="#B89C7A" stroke-width="2" opacity="0.3"/></g>
<g id="item-laptop" transform="translate(-140 60) scale(1)"><rect x="10" y="14" width="460" height="310" rx="18" fill="#2B2440" opacity="0.18"/><rect width="460" height="310" rx="18" fill="#A7AAC4"/><rect x="10" y="10" width="440" height="290" rx="12" fill="#B8BAD0"/><circle cx="230" cy="155" r="30" fill="#FFFFFF" opacity="0.35"/><g transform="rotate(-10 360 90)"><rect x="320" y="60" width="90" height="60" rx="10" fill="#6C5CE7"/><rect x="351" y="80" width="28" height="22" rx="4" fill="#FFFFFF"/><path d="M356 80 v-7 a9 9 0 0 1 18 0 v7" fill="none" stroke="#FFFFFF" stroke-width="4"/></g><g transform="rotate(8 90 240)"><circle cx="90" cy="240" r="30" fill="#FFE066"/><text x="90" y="248" font-size="22" fill="#2B2440" font-weight="bold" text-anchor="middle">:)</text></g></g>
<g id="item-gazeta" transform="translate(560 -60) scale(1)"><rect x="10" y="14" width="340" height="420" rx="4" fill="#2B2440" opacity="0.18"/><rect width="340" height="420" rx="4" fill="#FAF8F2"/><line x1="170" y1="0" x2="170" y2="420" stroke="#B8BAD0" stroke-width="2" opacity="0.5"/><text x="170" y="50" font-size="26" fill="#2B2440" font-weight="bold" text-anchor="middle" letter-spacing="2">GAZETA MIEJSKA</text><line x1="20" y1="64" x2="320" y2="64" stroke="#2B2440" stroke-width="3"/><text x="24" y="104" font-size="24" fill="#2B2440" font-weight="bold">Fala oszustw</text><text x="24" y="134" font-size="24" fill="#2B2440" font-weight="bold">„na informatyka”</text><rect x="24" y="160" width="140" height="100" rx="4" fill="#E3E6F5"/><path d="M40 244 l36 -40 l28 26 l20 -18 l30 32 z" fill="#B8BAD0"/><rect x="180" y="164" width="130" height="6" rx="3" fill="#B8BAD0"/><rect x="180" y="180" width="120" height="6" rx="3" fill="#B8BAD0"/><rect x="180" y="196" width="130" height="6" rx="3" fill="#B8BAD0"/><rect x="180" y="212" width="100" height="6" rx="3" fill="#B8BAD0"/><rect x="180" y="228" width="126" height="6" rx="3" fill="#B8BAD0"/><rect x="180" y="244" width="90" height="6" rx="3" fill="#B8BAD0"/><rect x="24" y="282" width="292" height="6" rx="3" fill="#B8BAD0"/><rect x="24" y="298" width="280" height="6" rx="3" fill="#B8BAD0"/><rect x="24" y="314" width="292" height="6" rx="3" fill="#B8BAD0"/><rect x="24" y="330" width="260" height="6" rx="3" fill="#B8BAD0"/><rect x="24" y="346" width="292" height="6" rx="3" fill="#B8BAD0"/><rect x="24" y="362" width="240" height="6" rx="3" fill="#B8BAD0"/><rect x="24" y="378" width="292" height="6" rx="3" fill="#B8BAD0"/><rect x="24" y="394" width="200" height="6" rx="3" fill="#B8BAD0"/></g>
<g id="item-lupa" transform="translate(10 820) scale(1)"><g transform="translate(8 10)" opacity="0.15"><circle cx="90" cy="90" r="74" fill="#2B2440"/><rect x="150" y="140" width="90" height="30" rx="14" transform="rotate(45 150 140)" fill="#2B2440"/></g><rect x="148" y="136" width="100" height="32" rx="15" transform="rotate(45 148 136)" fill="#3B3354"/><circle cx="90" cy="90" r="74" fill="#DDEBFF" opacity="0.5" stroke="#8C8FA8" stroke-width="12"/><path d="M50 60 q20 -28 52 -26" fill="none" stroke="#FFFFFF" stroke-width="8" stroke-linecap="round" opacity="0.8"/></g>
<g id="item-notes" transform="translate(30 1130) scale(1)"><rect x="10" y="14" width="250" height="320" rx="8" fill="#2B2440" opacity="0.18"/><rect width="250" height="320" rx="8" fill="#FFFFFF"/><circle cx="30" cy="14" r="8" fill="none" stroke="#8C8FA8" stroke-width="4"/><circle cx="54" cy="14" r="8" fill="none" stroke="#8C8FA8" stroke-width="4"/><circle cx="78" cy="14" r="8" fill="none" stroke="#8C8FA8" stroke-width="4"/><circle cx="102" cy="14" r="8" fill="none" stroke="#8C8FA8" stroke-width="4"/><circle cx="126" cy="14" r="8" fill="none" stroke="#8C8FA8" stroke-width="4"/><circle cx="150" cy="14" r="8" fill="none" stroke="#8C8FA8" stroke-width="4"/><circle cx="174" cy="14" r="8" fill="none" stroke="#8C8FA8" stroke-width="4"/><circle cx="198" cy="14" r="8" fill="none" stroke="#8C8FA8" stroke-width="4"/><circle cx="222" cy="14" r="8" fill="none" stroke="#8C8FA8" stroke-width="4"/><line x1="18" y1="60" x2="232" y2="60" stroke="#DDEBFF" stroke-width="2"/><line x1="18" y1="86" x2="232" y2="86" stroke="#DDEBFF" stroke-width="2"/><line x1="18" y1="112" x2="232" y2="112" stroke="#DDEBFF" stroke-width="2"/><line x1="18" y1="138" x2="232" y2="138" stroke="#DDEBFF" stroke-width="2"/><line x1="18" y1="164" x2="232" y2="164" stroke="#DDEBFF" stroke-width="2"/><line x1="18" y1="190" x2="232" y2="190" stroke="#DDEBFF" stroke-width="2"/><line x1="18" y1="216" x2="232" y2="216" stroke="#DDEBFF" stroke-width="2"/><line x1="18" y1="242" x2="232" y2="242" stroke="#DDEBFF" stroke-width="2"/><line x1="18" y1="268" x2="232" y2="268" stroke="#DDEBFF" stroke-width="2"/><line x1="18" y1="294" x2="232" y2="294" stroke="#DDEBFF" stroke-width="2"/><line x1="44" y1="30" x2="44" y2="310" stroke="#F4B6B8" stroke-width="2"/><text x="54" y="81" font-size="17" fill="#4E40B8">raport — czwartek</text><text x="54" y="133" font-size="17" fill="#4E40B8">Lipowa: helpdesk?</text><text x="54" y="185" font-size="17" fill="#4E40B8">oddać lupę</text><path d="M54 96 q60 10 120 -2" fill="none" stroke="#E5484D" stroke-width="3" stroke-linecap="round"/><circle cx="200" cy="240" r="22" fill="none" stroke="#E5484D" stroke-width="3"/><text x="200" y="248" font-size="24" fill="#E5484D" font-weight="bold" text-anchor="middle">?</text></g>
<g id="item-teczka" transform="translate(540 1130) scale(0.5)"><rect x="14" y="18" width="620" height="440" rx="14" fill="#2B2440" opacity="0.18"/><rect x="16" y="-14" width="590" height="440" rx="6" fill="#FFFFFF" transform="rotate(1.5 310 220)"/><rect x="10" y="-6" width="600" height="440" rx="6" fill="#F4F4F8" transform="rotate(-1 310 220)"/><rect width="620" height="440" rx="14" fill="#C9C1FA" stroke="#A99CF2" stroke-width="4"/><path d="M30 0 h180 l20 -26 h140 l20 26" fill="#C9C1FA" stroke="#A99CF2" stroke-width="4"/><rect x="70" y="80" width="340" height="120" rx="8" fill="#FFFFFF"/><text x="90" y="118" font-size="20" fill="#8C8FA8" font-weight="bold" letter-spacing="3">AKTA SPRAWY</text><text x="90" y="164" font-size="34" fill="#2B2440" font-weight="bold">GZH/2026/1004</text><rect x="90" y="180" width="220" height="5" rx="2.5" fill="#B8BAD0"/><g transform="rotate(-10 440 310)"><rect x="340" y="270" width="230" height="74" rx="10" fill="none" stroke="#E5484D" stroke-width="6"/><text x="455" y="320" font-size="30" fill="#E5484D" font-weight="bold" text-anchor="middle" letter-spacing="2">PRIORYTET</text></g><rect x="510" y="0" width="16" height="440" fill="#2B2440" opacity="0.85"/><rect x="70" y="350" width="200" height="14" rx="7" fill="#A99CF2"/></g>
<g id="item-kubek" transform="translate(330 1230) scale(1)"><circle cx="66" cy="68" r="56" fill="#2B2440" opacity="0.15"/><rect x="100" y="44" width="46" height="26" rx="13" fill="#3AA6B9"/><circle cx="60" cy="60" r="56" fill="#3AA6B9"/><circle cx="60" cy="60" r="44" fill="#6B4A2E"/><ellipse cx="46" cy="46" rx="14" ry="7" fill="#FFFFFF" opacity="0.25" transform="rotate(-30 46 46)"/><g class="a-shimmer"><path d="M44 70 q10 -10 22 -2 q10 8 20 -4" fill="none" stroke="#FFFFFF" stroke-width="4" stroke-linecap="round" opacity="0.35"/></g></g>
<g id="item-okulary" transform="translate(300 1420) scale(1)"><g opacity="0.15" transform="translate(6 8)"><circle cx="55" cy="55" r="42" fill="#2B2440"/><circle cx="175" cy="55" r="42" fill="#2B2440"/></g><circle cx="55" cy="55" r="42" fill="#DDEBFF" opacity="0.55" stroke="#2B2440" stroke-width="7"/><circle cx="175" cy="55" r="42" fill="#DDEBFF" opacity="0.55" stroke="#2B2440" stroke-width="7"/><path d="M97 50 q18 -14 36 0" fill="none" stroke="#2B2440" stroke-width="7"/><path d="M14 40 l-14 -34 M216 40 l14 -34" stroke="#2B2440" stroke-width="7" stroke-linecap="round"/><path d="M36 36 q10 -10 22 -8 M156 36 q10 -10 22 -8" stroke="#FFFFFF" stroke-width="5" fill="none" stroke-linecap="round" opacity="0.8"/></g>
<g id="item-klucze" transform="translate(660 1420) scale(1)"><circle cx="60" cy="60" r="34" fill="none" stroke="#8C8FA8" stroke-width="7"/><g transform="rotate(20 60 60)"><rect x="90" y="52" width="110" height="16" rx="5" fill="#B8BAD0"/><circle cx="96" cy="60" r="20" fill="#B8BAD0"/><circle cx="96" cy="60" r="7" fill="#D9C3A5"/><path d="M160 68 v12 h10 v-12 M180 68 v8 h10 v-8" fill="#B8BAD0"/></g><g transform="rotate(-35 60 60)"><rect x="-10" y="100" width="80" height="44" rx="8" fill="#6C5CE7"/><text x="30" y="128" font-size="14" fill="#FFFFFF" font-weight="bold" text-anchor="middle">BIURO</text></g></g>
<g id="item-dlugopis" transform="translate(20 1500) scale(1)"><rect x="6" y="6" width="220" height="16" rx="8" fill="#2B2440" opacity="0.15"/><rect width="200" height="16" rx="8" fill="#6C5CE7"/><path d="M200 0 l36 8 l-36 8 z" fill="#B8BAD0"/><path d="M226 6 l10 2 l-10 2 z" fill="#2B2440"/><rect x="24" y="-4" width="70" height="6" rx="3" fill="#8C8FA8"/></g>
<g id="item-telefon" transform="translate(300 470) scale(1.25)"><path class="a-wave" d="M-20 190 a60 60 0 0 0 0 100" fill="none" stroke="#6C5CE7" stroke-width="7" stroke-linecap="round"/><path class="a-wave" d="M260 190 a60 60 0 0 1 0 100" fill="none" stroke="#6C5CE7" stroke-width="7" stroke-linecap="round"/><path class="a-wave d1" d="M-46 176 a86 86 0 0 0 0 128" fill="none" stroke="#6C5CE7" stroke-width="7" stroke-linecap="round"/><path class="a-wave d1" d="M286 176 a86 86 0 0 1 0 128" fill="none" stroke="#6C5CE7" stroke-width="7" stroke-linecap="round"/><g class="a-ring"><rect x="10" y="14" width="240" height="480" rx="36" fill="#2B2440" opacity="0.18"/><rect width="240" height="480" rx="36" fill="#2B2440"/><rect x="12" y="14" width="216" height="452" rx="26" fill="#4E40B8"/><rect x="12" y="14" width="216" height="240" rx="26" fill="#6C5CE7"/><text x="120" y="64" font-size="13" fill="#FFFFFF" text-anchor="middle" opacity="0.85">Połączenie przychodzące</text><circle cx="120" cy="170" r="50" fill="#EEEBFF"/><text x="120" y="184" font-size="36" fill="#6C5CE7" font-weight="bold" text-anchor="middle">AW</text><text x="120" y="256" font-size="17" fill="#FFFFFF" font-weight="bold" text-anchor="middle">Komisarz A. Wolski</text><text x="120" y="278" font-size="11" fill="#FFFFFF" text-anchor="middle" opacity="0.8">Wydział Cyberbezpieczeństwa</text><circle cx="66" cy="396" r="30" fill="#E5484D"/><g transform="translate(66 396) rotate(135)"><path d="M-14 4 a14 14 0 0 1 28 0" fill="none" stroke="#FFFFFF" stroke-width="7" stroke-linecap="round"/><rect x="-19" y="1" width="11" height="8" rx="3" fill="#FFFFFF"/><rect x="8" y="1" width="11" height="8" rx="3" fill="#FFFFFF"/></g><g class="a-grow"><circle cx="174" cy="396" r="30" fill="#2FB36B"/><g transform="translate(174 400) rotate(0)"><path d="M-14 4 a14 14 0 0 1 28 0" fill="none" stroke="#FFFFFF" stroke-width="7" stroke-linecap="round"/><rect x="-19" y="1" width="11" height="8" rx="3" fill="#FFFFFF"/><rect x="8" y="1" width="11" height="8" rx="3" fill="#FFFFFF"/></g></g><text x="66" y="446" font-size="11" fill="#FFFFFF" text-anchor="middle" opacity="0.85">Odrzuć</text><text x="174" y="446" font-size="11" fill="#FFFFFF" text-anchor="middle" opacity="0.85">Odbierz</text><rect x="92" y="22" width="56" height="10" rx="5" fill="#2B2440"/></g></g>
</svg>