<svg xmlns="http://www.w3.org/2000/svg" id="static" viewBox="0 0 900 1600" width="900" height="1600" font-family="Arial, Helvetica, sans-serif">
<style>
.a-blink{animation:a-blink 1.2s ease-in-out infinite}
.a-blink-slow{animation:a-blink 3s ease-in-out infinite}
.a-glow{animation:a-glow 5s ease-in-out infinite}
.a-pulse{animation:a-pulse 2.2s ease-in-out infinite}
.a-steam{animation:a-steam 2.8s ease-in-out infinite;transform-box:fill-box;transform-origin:center bottom}
.a-sway{animation:a-sway 6s ease-in-out infinite;transform-box:fill-box;transform-origin:center bottom}
.a-flutter{animation:a-flutter 4.5s ease-in-out infinite;transform-box:fill-box;transform-origin:center top}
.a-bounce{animation:a-bounce 2.6s ease-in-out infinite;transform-box:fill-box;transform-origin:center}
.a-ring{animation:a-ring 1.2s ease-in-out infinite;transform-box:fill-box;transform-origin:center}
.a-wave{animation:a-wave 1.2s ease-out infinite}
.a-grow{animation:a-grow .9s ease-in-out infinite;transform-box:fill-box;transform-origin:center}
.a-shimmer{animation:a-shimmer 3.5s ease-in-out infinite}
.d1{animation-delay:.35s}.d2{animation-delay:.7s}
@keyframes a-blink{0%,100%{opacity:1}50%{opacity:.2}}
@keyframes a-glow{0%,100%{opacity:1}50%{opacity:.65}}
@keyframes a-pulse{0%,100%{opacity:1}50%{opacity:.45}}
@keyframes a-steam{0%{opacity:0;transform:translateY(6px)}40%{opacity:.9}100%{opacity:0;transform:translateY(-10px)}}
@keyframes a-sway{0%,100%{transform:rotate(0)}50%{transform:rotate(1.6deg)}}
@keyframes a-flutter{0%,100%{transform:rotate(0)}50%{transform:rotate(-1.4deg)}}
@keyframes a-bounce{0%,70%,100%{transform:scale(1)}80%{transform:scale(1.18)}90%{transform:scale(.95)}}
@keyframes a-ring{0%,100%{transform:rotate(0)}10%{transform:rotate(-2.5deg)}20%{transform:rotate(2.5deg)}30%{transform:rotate(-2.5deg)}40%{transform:rotate(0)}}
@keyframes a-wave{0%{opacity:0}30%{opacity:1}100%{opacity:0}}
@keyframes a-grow{0%,100%{transform:scale(1)}50%{transform:scale(1.12)}}
@keyframes a-shimmer{0%,100%{opacity:.55}50%{opacity:1}}
@media (prefers-reduced-motion: reduce){*{animation:none!important}}
#static:target *{animation:none!important}
</style>
<rect width="900" height="1600" fill="#D9C3A5"/>
<g id="item-sloje" transform="translate(0 0) scale(1)"><path d="M0 30 C 225 24, 450 36, 675 27 S 900 33, 900 30" fill="none" stroke="#B89C7A" stroke-width="3" opacity="0.28"/><path d="M0 137 C 225 128, 450 146, 675 132.5 S 900 141.5, 900 137" fill="none" stroke="#B89C7A" stroke-width="2" opacity="0.28"/><path d="M0 244 C 225 232, 450 256, 675 238 S 900 250, 900 244" fill="none" stroke="#B89C7A" stroke-width="3" opacity="0.28"/><path d="M0 330 C 225 315, 450 345, 675 322.5 S 900 337.5, 900 330" fill="none" stroke="#B89C7A" stroke-width="2" opacity="0.28"/><path d="M0 437 C 225 431, 450 443, 675 434 S 900 440, 900 437" fill="none" stroke="#B89C7A" stroke-width="3" opacity="0.28"/><path d="M0 544 C 225 535, 450 553, 675 539.5 S 900 548.5, 900 544" fill="none" stroke="#B89C7A" stroke-width="2" opacity="0.28"/><path d="M0 630 C 225 618, 450 642, 675 624 S 900 636, 900 630" fill="none" stroke="#B89C7A" stroke-width="3" opacity="0.28"/><path d="M0 737 C 225 722, 450 752, 675 729.5 S 900 744.5, 900 737" fill="none" stroke="#B89C7A" stroke-width="2" opacity="0.28"/><path d="M0 844 C 225 838, 450 850, 675 841 S 900 847, 900 844" fill="none" stroke="#B89C7A" stroke-width="3" opacity="0.28"/><path d="M0 930 C 225 921, 450 939, 675 925.5 S 900 934.5, 900 930" fill="none" stroke="#B89C7A" stroke-width="2" opacity="0.28"/><path d="M0 1037 C 225 1025, 450 1049, 675 1031 S 900 1043, 900 1037" fill="none" stroke="#B89C7A" stroke-width="3" opacity="0.28"/><path d="M0 1144 C 225 1129, 450 1159, 675 1136.5 S 900 1151.5, 900 1144" fill="none" stroke="#B89C7A" stroke-width="2" opacity="0.28"/><path d="M0 1230 C 225 1224, 450 1236, 675 1227 S 900 1233, 900 1230" fill="none" stroke="#B89C7A" stroke-width="3" opacity="0.28"/><path d="M0 1337 C 225 1328, 450 1346, 675 1332.5 S 900 1341.5, 900 1337" fill="none" stroke="#B89C7A" stroke-width="2" opacity="0.28"/><path d="M0 1444 C 225 1432, 450 1456, 675 1438 S 900 1450, 900 1444" fill="none" stroke="#B89C7A" stroke-width="3" opacity="0.28"/><path d="M0 1530 C 225 1515, 450 1545, 675 1522.5 S 900 1537.5, 900 1530" fill="none" stroke="#B89C7A" stroke-width="2" opacity="0.28"/><ellipse cx="648" cy="480" rx="46" ry="14" fill="none" stroke="#B89C7A" stroke-width="3" opacity="0.3"/><ellipse cx="648" cy="480" rx="24" ry="6" fill="none" stroke="#B89C7A" stroke-width="2" opacity="0.3"/></g>
<g id="item-kubek" transform="translate(80 150) scale(1)"><circle cx="66" cy="68" r="56" fill="#2B2440" opacity="0.15"/><rect x="100" y="44" width="46" height="26" rx="13" fill="#3AA6B9"/><circle cx="60" cy="60" r="56" fill="#3AA6B9"/><circle cx="60" cy="60" r="44" fill="#6B4A2E"/><ellipse cx="46" cy="46" rx="14" ry="7" fill="#FFFFFF" opacity="0.25" transform="rotate(-30 46 46)"/><g class="a-shimmer"><path d="M44 70 q10 -10 22 -2 q10 8 20 -4" fill="none" stroke="#FFFFFF" stroke-width="4" stroke-linecap="round" opacity="0.35"/></g></g>
<g id="item-klucze" transform="translate(600 200) scale(1)"><circle cx="60" cy="60" r="34" fill="none" stroke="#8C8FA8" stroke-width="7"/><g transform="rotate(20 60 60)"><rect x="90" y="52" width="110" height="16" rx="5" fill="#B8BAD0"/><circle cx="96" cy="60" r="20" fill="#B8BAD0"/><circle cx="96" cy="60" r="7" fill="#D9C3A5"/><path d="M160 68 v12 h10 v-12 M180 68 v8 h10 v-8" fill="#B8BAD0"/></g><g transform="rotate(-35 60 60)"><rect x="-10" y="100" width="80" height="44" rx="8" fill="#6C5CE7"/><text x="30" y="128" font-size="14" fill="#FFFFFF" font-weight="bold" text-anchor="middle">BIURO</text></g></g>
<g id="item-telefon" transform="translate(90 1180) scale(0.7)"><g><rect x="10" y="14" width="240" height="480" rx="36" fill="#2B2440" opacity="0.18"/><rect width="240" height="480" rx="36" fill="#2B2440"/><rect x="12" y="14" width="216" height="452" rx="26" fill="#2B2440"/><text x="120" y="120" font-size="44" fill="#FFFFFF" text-anchor="middle" opacity="0.9">10:20</text><text x="120" y="146" font-size="13" fill="#FFFFFF" text-anchor="middle" opacity="0.7">czwartek</text><rect x="92" y="22" width="56" height="10" rx="5" fill="#2B2440"/></g></g>
<g id="item-lupa" transform="translate(600 1220) scale(1)"><g transform="translate(8 10)" opacity="0.15"><circle cx="90" cy="90" r="74" fill="#2B2440"/><rect x="150" y="140" width="90" height="30" rx="14" transform="rotate(45 150 140)" fill="#2B2440"/></g><rect x="148" y="136" width="100" height="32" rx="15" transform="rotate(45 148 136)" fill="#3B3354"/><circle cx="90" cy="90" r="74" fill="#DDEBFF" opacity="0.5" stroke="#8C8FA8" stroke-width="12"/><path d="M50 60 q20 -28 52 -26" fill="none" stroke="#FFFFFF" stroke-width="8" stroke-linecap="round" opacity="0.8"/></g>
<g id="item-teczka" transform="translate(47 560) scale(1.3)"><rect x="14" y="18" width="620" height="440" rx="14" fill="#2B2440" opacity="0.18"/><rect x="16" y="-14" width="590" height="440" rx="6" fill="#FFFFFF" transform="rotate(1.5 310 220)"/><rect x="10" y="-6" width="600" height="440" rx="6" fill="#F4F4F8" transform="rotate(-1 310 220)"/><rect width="620" height="440" rx="14" fill="#C9C1FA" stroke="#A99CF2" stroke-width="4"/><path d="M30 0 h180 l20 -26 h140 l20 26" fill="#C9C1FA" stroke="#A99CF2" stroke-width="4"/><rect x="70" y="80" width="340" height="120" rx="8" fill="#FFFFFF"/><text x="90" y="118" font-size="20" fill="#8C8FA8" font-weight="bold" letter-spacing="3">AKTA SPRAWY</text><text x="90" y="164" font-size="34" fill="#2B2440" font-weight="bold">GZH/2026/1004</text><rect x="90" y="180" width="220" height="5" rx="2.5" fill="#B8BAD0"/><g transform="rotate(-10 440 310)"><rect x="340" y="270" width="230" height="74" rx="10" fill="none" stroke="#E5484D" stroke-width="6"/><text x="455" y="320" font-size="30" fill="#E5484D" font-weight="bold" text-anchor="middle" letter-spacing="2">PRIORYTET</text></g><rect x="510" y="0" width="16" height="440" fill="#2B2440" opacity="0.85"/><rect x="70" y="350" width="200" height="14" rx="7" fill="#A99CF2"/></g>
</svg>