<svg xmlns="http://www.w3.org/2000/svg" id="static" viewBox="0 0 860 1560" width="860" height="1560" font-family="Arial, Helvetica, sans-serif">
<style>
.a-blink{animation:a-blink 1.2s ease-in-out infinite}
.a-blink-slow{animation:a-blink 3s ease-in-out infinite}
.a-glow{animation:a-glow 5s ease-in-out infinite}
.a-pulse{animation:a-pulse 2.2s ease-in-out infinite}
.a-steam{animation:a-steam 2.8s ease-in-out infinite;transform-box:fill-box;transform-origin:center bottom}
.a-sway{animation:a-sway 6s ease-in-out infinite;transform-box:fill-box;transform-origin:center bottom}
.a-flutter{animation:a-flutter 4.5s ease-in-out infinite;transform-box:fill-box;transform-origin:center top}
.a-bounce{animation:a-bounce 2.6s ease-in-out infinite;transform-box:fill-box;transform-origin:center}
.a-ring{animation:a-ring 1.2s ease-in-out infinite;transform-box:fill-box;transform-origin:center}
.a-wave{animation:a-wave 1.2s ease-out infinite}
.a-grow{animation:a-grow .9s ease-in-out infinite;transform-box:fill-box;transform-origin:center}
.a-shimmer{animation:a-shimmer 3.5s ease-in-out infinite}
.d1{animation-delay:.35s}.d2{animation-delay:.7s}
@keyframes a-blink{0%,100%{opacity:1}50%{opacity:.2}}
@keyframes a-glow{0%,100%{opacity:1}50%{opacity:.65}}
@keyframes a-pulse{0%,100%{opacity:1}50%{opacity:.45}}
@keyframes a-steam{0%{opacity:0;transform:translateY(6px)}40%{opacity:.9}100%{opacity:0;transform:translateY(-10px)}}
@keyframes a-sway{0%,100%{transform:rotate(0)}50%{transform:rotate(1.6deg)}}
@keyframes a-flutter{0%,100%{transform:rotate(0)}50%{transform:rotate(-1.4deg)}}
@keyframes a-bounce{0%,70%,100%{transform:scale(1)}80%{transform:scale(1.18)}90%{transform:scale(.95)}}
@keyframes a-ring{0%,100%{transform:rotate(0)}10%{transform:rotate(-2.5deg)}20%{transform:rotate(2.5deg)}30%{transform:rotate(-2.5deg)}40%{transform:rotate(0)}}
@keyframes a-wave{0%{opacity:0}30%{opacity:1}100%{opacity:0}}
@keyframes a-grow{0%,100%{transform:scale(1)}50%{transform:scale(1.12)}}
@keyframes a-shimmer{0%,100%{opacity:.55}50%{opacity:1}}
@media (prefers-reduced-motion: reduce){*{animation:none!important}}
#static:target *{animation:none!important}
</style>
<g id="item-ekran" transform="translate(30 30) scale(1)"><rect x="10" y="14" width="800" height="1500" rx="88" fill="#2B2440" opacity="0.22"/><rect width="800" height="1500" rx="88" fill="#2B2440"/><rect x="44" y="113" width="712" height="1283" rx="40" fill="#F4F5FB"/><rect x="312" y="45" width="176" height="26.999999999999996" rx="13.499999999999998" fill="#1B1730"/><rect x="280" y="1440" width="240" height="12" rx="4" fill="#FFFFFF" opacity="0.6"/><rect x="44" y="113" width="712" height="150" rx="40" fill="#2FB36B"/><rect x="44" y="223" width="712" height="40" fill="#2FB36B"/><g transform="translate(134 189)"><g transform="rotate(0) scale(0.6)"><path d="M-44 -30 c-10 10 -10 30 6 52 c16 22 36 34 52 30 l12 -16 c3 -5 1 -10 -4 -13 l-18 -10 c-5 -3 -10 -1 -13 3 l-5 7 c-10 -5 -22 -18 -27 -28 l7 -5 c4 -3 6 -8 3 -13 l-10 -18 c-3 -5 -8 -7 -13 -4 z" fill="#FFFFFF" transform="translate(6 -6)"/></g></g><rect x="74" y="313" width="652" height="190" rx="24" fill="#FFE9EA"/><g transform="translate(140 383)"><circle r="40" fill="#E5484D" opacity="0.18"/><g transform="rotate(0) scale(0.52)"><path d="M-44 -30 c-10 10 -10 30 6 52 c16 22 36 34 52 30 l12 -16 c3 -5 1 -10 -4 -13 l-18 -10 c-5 -3 -10 -1 -13 3 l-5 7 c-10 -5 -22 -18 -27 -28 l7 -5 c4 -3 6 -8 3 -13 l-10 -18 c-3 -5 -8 -7 -13 -4 z" fill="#E5484D" transform="translate(6 -6)"/></g></g><text x="204" y="453" font-size="36" fill="#8C8FA8" letter-spacing="1">12 3XX XX 41</text><text x="686" y="393" font-size="34" fill="#8C8FA8" font-weight="bold" text-anchor="end">9:02</text><rect x="74" y="533" width="652" height="190" rx="24" fill="#FFFFFF"/><g transform="translate(140 603)"><circle r="40" fill="#2FB36B" opacity="0.18"/><g transform="rotate(0) scale(0.52)"><path d="M-44 -30 c-10 10 -10 30 6 52 c16 22 36 34 52 30 l12 -16 c3 -5 1 -10 -4 -13 l-18 -10 c-5 -3 -10 -1 -13 3 l-5 7 c-10 -5 -22 -18 -27 -28 l7 -5 c4 -3 6 -8 3 -13 l-10 -18 c-3 -5 -8 -7 -13 -4 z" fill="#2FB36B" transform="translate(6 -6)"/></g></g><text x="204" y="673" font-size="36" fill="#8C8FA8" letter-spacing="1">214</text><text x="686" y="613" font-size="34" fill="#8C8FA8" font-weight="bold" text-anchor="end">10:15</text><rect x="74" y="753" width="652" height="190" rx="24" fill="#FFFFFF"/><g transform="translate(140 823)"><circle r="40" fill="#B8BAD0" opacity="0.18"/><g transform="rotate(0) scale(0.52)"><path d="M-44 -30 c-10 10 -10 30 6 52 c16 22 36 34 52 30 l12 -16 c3 -5 1 -10 -4 -13 l-18 -10 c-5 -3 -10 -1 -13 3 l-5 7 c-10 -5 -22 -18 -27 -28 l7 -5 c4 -3 6 -8 3 -13 l-10 -18 c-3 -5 -8 -7 -13 -4 z" fill="#B8BAD0" transform="translate(6 -6)"/></g></g><text x="204" y="893" font-size="36" fill="#8C8FA8" letter-spacing="1">12 3XX XX 00</text><text x="686" y="833" font-size="34" fill="#8C8FA8" font-weight="bold" text-anchor="end">wt.</text></g>
</svg>