<svg xmlns="http://www.w3.org/2000/svg" id="static" viewBox="0 0 900 1600" width="900" height="1600" font-family="Arial, Helvetica, sans-serif">
<style>
.a-blink{animation:a-blink 1.2s ease-in-out infinite}
.a-blink-slow{animation:a-blink 3s ease-in-out infinite}
.a-glow{animation:a-glow 5s ease-in-out infinite}
.a-pulse{animation:a-pulse 2.2s ease-in-out infinite}
.a-steam{animation:a-steam 2.8s ease-in-out infinite;transform-box:fill-box;transform-origin:center bottom}
.a-sway{animation:a-sway 6s ease-in-out infinite;transform-box:fill-box;transform-origin:center bottom}
.a-flutter{animation:a-flutter 4.5s ease-in-out infinite;transform-box:fill-box;transform-origin:center top}
.a-bounce{animation:a-bounce 2.6s ease-in-out infinite;transform-box:fill-box;transform-origin:center}
.a-ring{animation:a-ring 1.2s ease-in-out infinite;transform-box:fill-box;transform-origin:center}
.a-wave{animation:a-wave 1.2s ease-out infinite}
.a-grow{animation:a-grow .9s ease-in-out infinite;transform-box:fill-box;transform-origin:center}
.a-shimmer{animation:a-shimmer 3.5s ease-in-out infinite}
.d1{animation-delay:.35s}.d2{animation-delay:.7s}
@keyframes a-blink{0%,100%{opacity:1}50%{opacity:.2}}
@keyframes a-glow{0%,100%{opacity:1}50%{opacity:.65}}
@keyframes a-pulse{0%,100%{opacity:1}50%{opacity:.45}}
@keyframes a-steam{0%{opacity:0;transform:translateY(6px)}40%{opacity:.9}100%{opacity:0;transform:translateY(-10px)}}
@keyframes a-sway{0%,100%{transform:rotate(0)}50%{transform:rotate(1.6deg)}}
@keyframes a-flutter{0%,100%{transform:rotate(0)}50%{transform:rotate(-1.4deg)}}
@keyframes a-bounce{0%,70%,100%{transform:scale(1)}80%{transform:scale(1.18)}90%{transform:scale(.95)}}
@keyframes a-ring{0%,100%{transform:rotate(0)}10%{transform:rotate(-2.5deg)}20%{transform:rotate(2.5deg)}30%{transform:rotate(-2.5deg)}40%{transform:rotate(0)}}
@keyframes a-wave{0%{opacity:0}30%{opacity:1}100%{opacity:0}}
@keyframes a-grow{0%,100%{transform:scale(1)}50%{transform:scale(1.12)}}
@keyframes a-shimmer{0%,100%{opacity:.55}50%{opacity:1}}
@media (prefers-reduced-motion: reduce){*{animation:none!important}}
#static:target *{animation:none!important}
</style>
<rect width="900" height="1600" fill="#D9C3A5"/>
<g id="item-sloje" transform="translate(0 0) scale(1)"><path d="M0 30 C 225 24, 450 36, 675 27 S 900 33, 900 30" fill="none" stroke="#B89C7A" stroke-width="3" opacity="0.28"/><path d="M0 137 C 225 128, 450 146, 675 132.5 S 900 141.5, 900 137" fill="none" stroke="#B89C7A" stroke-width="2" opacity="0.28"/><path d="M0 244 C 225 232, 450 256, 675 238 S 900 250, 900 244" fill="none" stroke="#B89C7A" stroke-width="3" opacity="0.28"/><path d="M0 330 C 225 315, 450 345, 675 322.5 S 900 337.5, 900 330" fill="none" stroke="#B89C7A" stroke-width="2" opacity="0.28"/><path d="M0 437 C 225 431, 450 443, 675 434 S 900 440, 900 437" fill="none" stroke="#B89C7A" stroke-width="3" opacity="0.28"/><path d="M0 544 C 225 535, 450 553, 675 539.5 S 900 548.5, 900 544" fill="none" stroke="#B89C7A" stroke-width="2" opacity="0.28"/><path d="M0 630 C 225 618, 450 642, 675 624 S 900 636, 900 630" fill="none" stroke="#B89C7A" stroke-width="3" opacity="0.28"/><path d="M0 737 C 225 722, 450 752, 675 729.5 S 900 744.5, 900 737" fill="none" stroke="#B89C7A" stroke-width="2" opacity="0.28"/><path d="M0 844 C 225 838, 450 850, 675 841 S 900 847, 900 844" fill="none" stroke="#B89C7A" stroke-width="3" opacity="0.28"/><path d="M0 930 C 225 921, 450 939, 675 925.5 S 900 934.5, 900 930" fill="none" stroke="#B89C7A" stroke-width="2" opacity="0.28"/><path d="M0 1037 C 225 1025, 450 1049, 675 1031 S 900 1043, 900 1037" fill="none" stroke="#B89C7A" stroke-width="3" opacity="0.28"/><path d="M0 1144 C 225 1129, 450 1159, 675 1136.5 S 900 1151.5, 900 1144" fill="none" stroke="#B89C7A" stroke-width="2" opacity="0.28"/><path d="M0 1230 C 225 1224, 450 1236, 675 1227 S 900 1233, 900 1230" fill="none" stroke="#B89C7A" stroke-width="3" opacity="0.28"/><path d="M0 1337 C 225 1328, 450 1346, 675 1332.5 S 900 1341.5, 900 1337" fill="none" stroke="#B89C7A" stroke-width="2" opacity="0.28"/><path d="M0 1444 C 225 1432, 450 1456, 675 1438 S 900 1450, 900 1444" fill="none" stroke="#B89C7A" stroke-width="3" opacity="0.28"/><path d="M0 1530 C 225 1515, 450 1545, 675 1522.5 S 900 1537.5, 900 1530" fill="none" stroke="#B89C7A" stroke-width="2" opacity="0.28"/><ellipse cx="648" cy="480" rx="46" ry="14" fill="none" stroke="#B89C7A" stroke-width="3" opacity="0.3"/><ellipse cx="648" cy="480" rx="24" ry="6" fill="none" stroke="#B89C7A" stroke-width="2" opacity="0.3"/></g>
<g id="item-telefon" transform="translate(190 20) scale(0.95)"><rect x="10" y="14" width="560" height="980" rx="61.6" fill="#2B2440" opacity="0.22"/><rect width="560" height="980" rx="61.6" fill="#2B2440"/><rect x="31" y="74" width="498" height="838" rx="28" fill="#F4F5FB"/><rect x="218.4" y="29.4" width="123.2" height="17.639999999999997" rx="8.819999999999999" fill="#1B1730"/><rect x="196" y="940.8" width="168" height="7.84" rx="4" fill="#FFFFFF" opacity="0.6"/><rect x="31" y="74" width="498" height="140" rx="28" fill="#2FB36B"/><rect x="31" y="174" width="498" height="40" fill="#2FB36B"/><g transform="translate(111 144)"><g transform="rotate(0) scale(0.56)"><path d="M-44 -30 c-10 10 -10 30 6 52 c16 22 36 34 52 30 l12 -16 c3 -5 1 -10 -4 -13 l-18 -10 c-5 -3 -10 -1 -13 3 l-5 7 c-10 -5 -22 -18 -27 -28 l7 -5 c4 -3 6 -8 3 -13 l-10 -18 c-3 -5 -8 -7 -13 -4 z" fill="#FFFFFF" transform="translate(6 -6)"/></g></g><rect x="55" y="264" width="450" height="190" rx="22" fill="#FFE9EA"/><g transform="translate(115 334)"><circle r="38" fill="#E5484D" opacity="0.18"/><g transform="rotate(0) scale(0.5)"><path d="M-44 -30 c-10 10 -10 30 6 52 c16 22 36 34 52 30 l12 -16 c3 -5 1 -10 -4 -13 l-18 -10 c-5 -3 -10 -1 -13 3 l-5 7 c-10 -5 -22 -18 -27 -28 l7 -5 c4 -3 6 -8 3 -13 l-10 -18 c-3 -5 -8 -7 -13 -4 z" fill="#E5484D" transform="translate(6 -6)"/></g></g><text x="175" y="414" font-size="30" fill="#8C8FA8" letter-spacing="1">12 3XX XX 41</text><rect x="55" y="484" width="450" height="190" rx="22" fill="#FFFFFF"/><g transform="translate(115 554)"><circle r="38" fill="#2FB36B" opacity="0.18"/><g transform="rotate(0) scale(0.5)"><path d="M-44 -30 c-10 10 -10 30 6 52 c16 22 36 34 52 30 l12 -16 c3 -5 1 -10 -4 -13 l-18 -10 c-5 -3 -10 -1 -13 3 l-5 7 c-10 -5 -22 -18 -27 -28 l7 -5 c4 -3 6 -8 3 -13 l-10 -18 c-3 -5 -8 -7 -13 -4 z" fill="#2FB36B" transform="translate(6 -6)"/></g></g><text x="175" y="634" font-size="30" fill="#8C8FA8" letter-spacing="1">214</text></g>
<g id="item-intranet" transform="translate(170 980) scale(1)"><rect x="10" y="14" width="560" height="700" rx="6" fill="#2B2440" opacity="0.14"/><rect width="560" height="700" rx="6" fill="#FFFFFF"/><rect width="560" height="90" rx="6" fill="#4E40B8"/><rect y="70" width="560" height="20" fill="#4E40B8"/><circle cx="60" cy="45" r="24" fill="#FFFFFF" opacity="0.9"/><rect x="40" y="130" width="480" height="200" rx="14" fill="#EEEBFF"/><g transform="translate(110 230)"><circle r="54" fill="#6C5CE7"/><g transform="rotate(0) scale(0.64)"><path d="M-44 -30 c-10 10 -10 30 6 52 c16 22 36 34 52 30 l12 -16 c3 -5 1 -10 -4 -13 l-18 -10 c-5 -3 -10 -1 -13 3 l-5 7 c-10 -5 -22 -18 -27 -28 l7 -5 c4 -3 6 -8 3 -13 l-10 -18 c-3 -5 -8 -7 -13 -4 z" fill="#FFFFFF" transform="translate(6 -6)"/></g></g><text x="200" y="262" font-size="88" fill="#4E40B8" font-weight="bold">214</text><rect x="40" y="380" width="420" height="12" rx="6" fill="#B8BAD0"/><rect x="40" y="422" width="360" height="12" rx="6" fill="#B8BAD0"/><rect x="40" y="464" width="440" height="12" rx="6" fill="#B8BAD0"/><rect x="40" y="506" width="300" height="12" rx="6" fill="#B8BAD0"/><rect x="40" y="548" width="400" height="12" rx="6" fill="#B8BAD0"/><rect x="40" y="590" width="340" height="12" rx="6" fill="#B8BAD0"/></g>
</svg>