<svg xmlns="http://www.w3.org/2000/svg" id="static" viewBox="0 0 512 512" width="512" height="512" font-family="Arial, Helvetica, sans-serif">
<style>
.a-blink{animation:a-blink 1.2s ease-in-out infinite}
.a-blink-slow{animation:a-blink 3s ease-in-out infinite}
.a-glow{animation:a-glow 5s ease-in-out infinite}
.a-pulse{animation:a-pulse 2.2s ease-in-out infinite}
.a-steam{animation:a-steam 2.8s ease-in-out infinite;transform-box:fill-box;transform-origin:center bottom}
.a-sway{animation:a-sway 6s ease-in-out infinite;transform-box:fill-box;transform-origin:center bottom}
.a-flutter{animation:a-flutter 4.5s ease-in-out infinite;transform-box:fill-box;transform-origin:center top}
.a-bounce{animation:a-bounce 2.6s ease-in-out infinite;transform-box:fill-box;transform-origin:center}
.a-ring{animation:a-ring 1.2s ease-in-out infinite;transform-box:fill-box;transform-origin:center}
.a-wave{animation:a-wave 1.2s ease-out infinite}
.a-grow{animation:a-grow .9s ease-in-out infinite;transform-box:fill-box;transform-origin:center}
.a-shimmer{animation:a-shimmer 3.5s ease-in-out infinite}
.d1{animation-delay:.35s}.d2{animation-delay:.7s}
@keyframes a-blink{0%,100%{opacity:1}50%{opacity:.2}}
@keyframes a-glow{0%,100%{opacity:1}50%{opacity:.65}}
@keyframes a-pulse{0%,100%{opacity:1}50%{opacity:.45}}
@keyframes a-steam{0%{opacity:0;transform:translateY(6px)}40%{opacity:.9}100%{opacity:0;transform:translateY(-10px)}}
@keyframes a-sway{0%,100%{transform:rotate(0)}50%{transform:rotate(1.6deg)}}
@keyframes a-flutter{0%,100%{transform:rotate(0)}50%{transform:rotate(-1.4deg)}}
@keyframes a-bounce{0%,70%,100%{transform:scale(1)}80%{transform:scale(1.18)}90%{transform:scale(.95)}}
@keyframes a-ring{0%,100%{transform:rotate(0)}10%{transform:rotate(-2.5deg)}20%{transform:rotate(2.5deg)}30%{transform:rotate(-2.5deg)}40%{transform:rotate(0)}}
@keyframes a-wave{0%{opacity:0}30%{opacity:1}100%{opacity:0}}
@keyframes a-grow{0%,100%{transform:scale(1)}50%{transform:scale(1.12)}}
@keyframes a-shimmer{0%,100%{opacity:.55}50%{opacity:1}}
@media (prefers-reduced-motion: reduce){*{animation:none!important}}
#static:target *{animation:none!important}
</style>
<g id="item-odznaka" transform="translate(0 0) scale(1)"><defs><linearGradient id="gold-odznaka" x1="0" y1="0" x2="1" y2="1"><stop offset="0" stop-color="#FFF1A8"/><stop offset="0.45" stop-color="#F2C94C"/><stop offset="0.7" stop-color="#C9962B"/><stop offset="1" stop-color="#FFE38A"/></linearGradient><linearGradient id="silver-odznaka" x1="0" y1="0" x2="1" y2="1"><stop offset="0" stop-color="#FFFFFF"/><stop offset="0.5" stop-color="#C9CBDA"/><stop offset="1" stop-color="#8C8FA8"/></linearGradient><linearGradient id="neon-odznaka" x1="0" y1="0" x2="0" y2="1"><stop offset="0" stop-color="#2B1B5E"/><stop offset="0.5" stop-color="#C2417A"/><stop offset="1" stop-color="#F7A24B"/></linearGradient><linearGradient id="enamel-odznaka" x1="0" y1="0" x2="0" y2="1"><stop offset="0" stop-color="#8A7BFF"/><stop offset="1" stop-color="#3F32B5"/></linearGradient><radialGradient id="glow-odznaka" cx="0.5" cy="0.45" r="0.55"><stop offset="0" stop-color="#FFFFFF" stop-opacity="0.55"/><stop offset="1" stop-color="#FFFFFF" stop-opacity="0"/></radialGradient><linearGradient id="shine-odznaka" x1="0" y1="0" x2="1" y2="0"><stop offset="0" stop-color="#FFFFFF" stop-opacity="0"/><stop offset="0.5" stop-color="#FFFFFF" stop-opacity="0.55"/><stop offset="1" stop-color="#FFFFFF" stop-opacity="0"/></linearGradient><clipPath id="hexc-odznaka"><polygon points="385.9,311.0 256.0,386.0 126.1,311.0 126.1,161.0 256.0,86.0 385.9,161.0"/></clipPath><clipPath id="shc-odznaka"><path d="M256 68 L402 118 V246 C402 346, 326 396, 256 426 C186 396, 110 346, 110 246 V118 Z"/></clipPath><clipPath id="cc-odznaka"><circle cx="256" cy="236" r="140"/></clipPath></defs><circle cx="256" cy="236" r="230" fill="url(#glow-odznaka)"/><polygon points="410.2,331.0 256.0,420.0 101.8,331.0 101.8,153.0 256.0,64.0 410.2,153.0" fill="#2B2440" opacity="0.25"/><polygon points="410.2,325.0 256.0,414.0 101.8,325.0 101.8,147.0 256.0,58.0 410.2,147.0" fill="url(#silver-odznaka)"/><polygon points="394.6,316.0 256.0,396.0 117.4,316.0 117.4,156.0 256.0,76.0 394.6,156.0" fill="#2B1B5E"/><g clip-path="url(#hexc-odznaka)"><rect x="96" y="76" width="320" height="320" fill="url(#neon-odznaka)"/><circle cx="256" cy="294" r="74" fill="#FFD36E"/><rect x="176" y="280" width="160" height="3" fill="#C2417A"/><rect x="176" y="294" width="160" height="5" fill="#C2417A"/><rect x="176" y="308" width="160" height="7" fill="#C2417A"/><rect x="176" y="322" width="160" height="9" fill="#C2417A"/><rect x="92" y="326" width="28" height="60" fill="#1B1236"/><rect x="100" y="358" width="6" height="8" fill="#FFD36E" opacity="0.8"/><rect x="122" y="291" width="28" height="95" fill="#1B1236"/><rect x="130" y="301" width="6" height="8" fill="#FFD36E" opacity="0.8"/><rect x="130" y="323" width="6" height="8" fill="#FFD36E" opacity="0.8"/><rect x="130" y="367" width="6" height="8" fill="#FFD36E" opacity="0.8"/><rect x="150" y="316" width="28" height="70" fill="#1B1236"/><rect x="158" y="326" width="6" height="8" fill="#FFD36E" opacity="0.8"/><rect x="158" y="370" width="6" height="8" fill="#FFD36E" opacity="0.8"/><rect x="176" y="266" width="28" height="120" fill="#1B1236"/><rect x="184" y="298" width="6" height="8" fill="#FFD36E" opacity="0.8"/><rect x="184" y="320" width="6" height="8" fill="#FFD36E" opacity="0.8"/><rect x="184" y="364" width="6" height="8" fill="#FFD36E" opacity="0.8"/><rect x="202" y="301" width="28" height="85" fill="#1B1236"/><rect x="210" y="311" width="6" height="8" fill="#FFD36E" opacity="0.8"/><rect x="210" y="333" width="6" height="8" fill="#FFD36E" opacity="0.8"/><rect x="228" y="246" width="28" height="140" fill="#1B1236"/><rect x="236" y="256" width="6" height="8" fill="#FFD36E" opacity="0.8"/><rect x="236" y="300" width="6" height="8" fill="#FFD36E" opacity="0.8"/><rect x="236" y="322" width="6" height="8" fill="#FFD36E" opacity="0.8"/><rect x="236" y="366" width="6" height="8" fill="#FFD36E" opacity="0.8"/><rect x="256" y="286" width="28" height="100" fill="#1B1236"/><rect x="264" y="318" width="6" height="8" fill="#FFD36E" opacity="0.8"/><rect x="264" y="340" width="6" height="8" fill="#FFD36E" opacity="0.8"/><rect x="282" y="256" width="28" height="130" fill="#1B1236"/><rect x="290" y="266" width="6" height="8" fill="#FFD36E" opacity="0.8"/><rect x="290" y="288" width="6" height="8" fill="#FFD36E" opacity="0.8"/><rect x="290" y="332" width="6" height="8" fill="#FFD36E" opacity="0.8"/><rect x="290" y="354" width="6" height="8" fill="#FFD36E" opacity="0.8"/><rect x="308" y="306" width="28" height="80" fill="#1B1236"/><rect x="316" y="316" width="6" height="8" fill="#FFD36E" opacity="0.8"/><rect x="316" y="360" width="6" height="8" fill="#FFD36E" opacity="0.8"/><rect x="334" y="276" width="28" height="110" fill="#1B1236"/><rect x="342" y="308" width="6" height="8" fill="#FFD36E" opacity="0.8"/><rect x="342" y="330" width="6" height="8" fill="#FFD36E" opacity="0.8"/><rect x="342" y="374" width="6" height="8" fill="#FFD36E" opacity="0.8"/><rect x="362" y="314" width="28" height="72" fill="#1B1236"/><rect x="370" y="324" width="6" height="8" fill="#FFD36E" opacity="0.8"/><rect x="370" y="346" width="6" height="8" fill="#FFD36E" opacity="0.8"/><rect x="392" y="296" width="28" height="90" fill="#1B1236"/><rect x="400" y="306" width="6" height="8" fill="#FFD36E" opacity="0.8"/><rect x="400" y="350" width="6" height="8" fill="#FFD36E" opacity="0.8"/><rect x="400" y="372" width="6" height="8" fill="#FFD36E" opacity="0.8"/><path d="M138 386 q6 -80 -8 -150" stroke="#1B1236" stroke-width="8" fill="none"/><path d="M130 236 q-40 -6 -52 26 M130 236 q-34 -28 -60 -14 M130 236 q14 -40 48 -40 M130 236 q40 -14 54 20" stroke="#1B1236" stroke-width="12" fill="none" stroke-linecap="round"/><rect x="96" y="76" width="90" height="320" fill="url(#shine-odznaka)" transform="rotate(18 256 236)" opacity="0.6"/></g><g transform="translate(276 196)"><circle r="62" fill="#FFFFFF" fill-opacity="0.18" stroke="#FFFFFF" stroke-width="16"/><rect x="40" y="40" width="70" height="22" rx="11" transform="rotate(45 40 40)" fill="#FFFFFF"/><text x="0" y="22" font-size="64" fill="#FFFFFF" font-weight="bold" text-anchor="middle">?</text></g><path d="M386 98 q3.2399999999999998 14.76 18 18 q-14.76 3.2399999999999998 -18 18 q-3.2399999999999998 -14.76 -18 -18 q14.76 -3.2399999999999998 18 -18 z" fill="#FFFFFF"/><path d="M116 134 q2.16 9.84 12 12 q-9.84 2.16 -12 12 q-2.16 -9.84 -12 -12 q9.84 -2.16 12 -12 z" fill="#FFFFFF"/><path d="M406 266 q1.7999999999999998 8.2 10 10 q-8.2 1.7999999999999998 -10 10 q-1.7999999999999998 -8.2 -10 -10 q8.2 -1.7999999999999998 10 -10 z" fill="#FFD36E"/><rect x="196" y="32" width="120" height="36" rx="18" fill="#C2417A"/><text x="256" y="57" font-size="20" fill="#FFFFFF" font-weight="bold" text-anchor="middle" letter-spacing="3">SECRET</text><path d="M52 428 h34 v44 h-34 l14 -22 z" fill="#7A2150"/><path d="M460 428 h-34 v44 h34 l-14 -22 z" fill="#7A2150"/><rect x="86" y="420" width="340" height="52" rx="6" fill="#C2417A"/><path d="M86 472 l20 12 v-12 z M426 472 l-20 12 v-12 z" fill="#2B2440" opacity="0.45"/><text x="256" y="455" font-size="24" fill="#FFFFFF" font-weight="bold" text-anchor="middle" letter-spacing="2">CURIOUS DETECTIVE</text></g>
</svg>